<svg preserveAspectRatio="none" width="100%" height="100%" overflow="visible" style="display: block;" viewBox="0 0 64 64" fill="none" xmlns="http://www.w3.org/2000/svg">
<g id="gis:layer-upload" clip-path="url(#clip0_0_190)">
<path id="Vector" d="M32.0004 3.2002L15.768 19.5004H26.458V32.7516H37.5428V19.5004H48.2327L32.0004 3.2002ZM18.0068 23.878C17.6819 23.8779 17.3609 23.9485 17.0661 24.0849C16.7712 24.2213 16.5096 24.4201 16.2992 24.6677L0.532839 43.238C0.256138 43.5639 0.0785111 43.9623 0.0209418 44.386C-0.0366275 44.8096 0.0282658 45.2409 0.207956 45.6289C0.387646 46.0169 0.674626 46.3454 1.035 46.5755C1.39536 46.8056 1.81407 46.9278 2.24164 46.9276L61.7616 46.8866C62.1891 46.8864 62.6076 46.7639 62.9677 46.5336C63.3278 46.3032 63.6145 45.9747 63.7939 45.5867C63.9733 45.1987 64.0379 44.7674 63.9802 44.3439C63.9224 43.9203 63.7446 43.5221 63.4679 43.1964L47.738 24.6677C47.5276 24.4201 47.266 24.2213 46.9711 24.0849C46.6763 23.9485 46.3553 23.8779 46.0304 23.878H41.3828C41.3815 25.3711 41.3776 26.8642 41.3776 28.358H44.993L56.9226 42.4104L7.08388 42.4437L19.0429 28.3573H22.618C22.6192 26.8642 22.6199 25.3711 22.618 23.8773L18.0068 23.878ZM57.5428 50.0892L51.6688 50.0936L56.9239 56.2824L7.08388 56.3164L12.3447 50.1199L6.46436 50.125L0.532839 57.11C0.255939 57.4359 0.0781433 57.8343 0.0204646 58.2581C-0.037214 58.6819 0.027636 59.1133 0.20735 59.5014C0.387064 59.8895 0.67413 60.2181 1.03462 60.4482C1.39511 60.6784 1.81395 60.8005 2.24164 60.8002L61.7616 60.7592C62.1891 60.7591 62.6076 60.6366 62.9677 60.4062C63.3278 60.1759 63.6145 59.8473 63.7939 59.4593C63.9733 59.0713 64.0379 58.6401 63.9802 58.2165C63.9224 57.793 63.7446 57.3948 63.4679 57.069L57.5428 50.0892Z" fill="var(--fill-0, #077F68)"/>
</g>
<defs>
<clipPath id="clip0_0_190">
<rect width="64" height="64" fill="white"/>
</clipPath>
</defs>
</svg>
