<svg width="38" height="38" viewBox="0 0 38 38" fill="none" xmlns="http://www.w3.org/2000/svg">
<rect width="38" height="38" rx="6" fill="#DDF1EF"></rect>
<path d="M18.2668 19.813C18.378 19.8884 18.4616 19.9441 18.6484 20.0687C18.6484 19.2824 18.6484 18.5905 18.6484 17.8986C18.6484 17.7239 18.6348 17.548 18.6506 17.3748C18.7164 16.6554 18.5239 16.0628 18.0947 15.4394C16.5954 13.2616 16.7279 10.5101 18.3261 8.45515C18.8724 7.75276 19.13 7.75217 19.6995 8.45196C21.3077 10.428 21.4026 13.4256 19.882 15.5254C19.5443 15.9919 19.3858 16.4477 19.4066 17.019C19.4413 17.9757 19.4161 18.9346 19.4161 20.018C20.0047 19.5984 20.5112 19.3406 20.6564 18.6153C21.1574 16.1122 23.4294 14.2732 25.9328 14.2682C26.7527 14.2665 26.8891 14.4236 26.7694 15.2313C26.4641 17.2905 24.6815 19.2086 22.6518 19.6574C22.4309 19.7063 22.1939 19.8029 21.9849 19.7647C20.8921 19.565 20.2908 20.3605 19.6021 20.9365C19.1335 21.3284 19.3952 22.0719 19.9951 22.2336C22.7244 22.9692 24.1799 24.915 24.9631 27.4913C25.0382 27.738 24.9893 27.9704 24.7059 28.026C24.389 28.0881 24.2913 27.8346 24.2182 27.5915C23.8447 26.3484 23.2507 25.2336 22.29 24.3425C21.7169 23.8109 21.1027 23.3357 20.2083 23.125C20.99 24.3337 21.4508 25.5661 21.6961 26.8784C21.7408 27.1173 21.7486 27.3633 21.7705 27.6063C21.7908 27.8301 21.7002 27.992 21.4709 28.0205C21.2405 28.0492 21.1146 27.9026 21.0728 27.6915C20.995 27.2981 20.9447 26.8986 20.8534 26.5086C20.5842 25.3574 20.1526 24.2777 19.3932 23.3526C19.2859 23.222 19.209 23.0523 18.9822 22.9933C18.2985 23.5798 17.9024 24.3716 17.5715 25.1989C17.2853 25.9145 17.1107 26.6623 17.0241 27.4296C17.0006 27.638 16.9812 27.8534 16.7732 27.9777C16.6603 28.0451 16.5418 28.0558 16.4284 27.9779C16.2628 27.8641 16.2316 27.6926 16.2563 27.5128C16.4431 26.155 16.7655 24.8402 17.4861 23.6513C17.573 23.5078 17.7239 23.3906 17.704 23.1231C16.6816 23.4269 15.9029 24.0431 15.2384 24.811C14.5549 25.6007 14.1011 26.5235 13.7977 27.5209C13.7155 27.7911 13.6439 28.1256 13.2646 28.0103C12.8861 27.8952 13.0082 27.5723 13.0901 27.3042C13.885 24.7007 15.451 22.8636 18.1834 22.1879C18.6997 22.0602 18.8757 21.3576 18.4598 20.9657C18.0541 20.5833 17.6019 20.2503 17.1688 19.8972C17.0053 19.764 16.8067 19.7806 16.6162 19.7875C13.9507 19.8832 11.6668 17.6603 11.2744 14.9685C11.2009 14.464 11.3638 14.292 11.9148 14.2705C14.4865 14.17 16.7946 15.9274 17.4185 18.5291C17.5514 19.0833 17.7824 19.4904 18.2668 19.813ZM18.7514 15.1007C19.0228 15.4468 19.1877 15.2134 19.3469 14.9873C20.5438 13.2867 20.5188 10.8831 19.2862 9.19843C19.2075 9.09093 19.1522 8.94612 18.9835 8.94653C17.5199 10.3584 17.4034 12.9761 18.7514 15.1007ZM12.4462 16.2807C12.6021 16.5522 12.7315 16.8435 12.9182 17.0918C13.7122 18.1479 14.7023 18.8988 16.0749 18.9956C16.6662 19.0372 16.7791 18.9053 16.5799 18.3334C15.9547 16.5395 14.6943 15.4439 12.8337 15.0759C12.0992 14.9307 11.9903 15.1022 12.2604 15.8197C12.3094 15.9499 12.3639 16.0781 12.4462 16.2807ZM22.2493 18.9782C24.0447 18.5917 25.1973 17.4718 25.8396 15.7937C26.1059 15.098 25.9684 14.9406 25.2235 15.077C23.9668 15.3069 22.948 15.9456 22.2 16.9811C21.7826 17.559 21.444 18.1832 21.3993 18.9126C21.6762 19.0644 21.9208 18.994 22.2493 18.9782Z" fill="#1A9E96"></path>
<path d="M16.1145 29.2117C15.4409 29.1393 14.8658 29.2832 14.3067 29.5794C13.1137 30.2114 11.9143 30.2597 10.7145 29.5659C9.94375 29.1202 9.13494 29.0455 8.30369 29.4065C8.0947 29.4972 7.88323 29.5282 7.75914 29.2879C7.61851 29.0156 7.79607 28.8593 8.01407 28.7506C9.04183 28.2377 10.0449 28.3535 11.0173 28.9007C11.6814 29.2744 12.3667 29.4522 13.1266 29.2566C13.4357 29.1771 13.7162 29.0407 13.9923 28.8926C15.1646 28.2641 16.341 28.2636 17.4913 28.917C18.4999 29.4899 19.4776 29.4667 20.472 28.9074C21.6371 28.252 22.8112 28.2746 23.9643 28.9251C24.935 29.4728 25.8782 29.4567 26.8469 28.9216C27.8298 28.3785 28.8532 28.2314 29.9068 28.7327C30.1283 28.8381 30.3933 28.9458 30.254 29.267C30.1227 29.5699 29.8835 29.5032 29.6341 29.4017C28.8458 29.081 28.0652 29.1002 27.3146 29.5168C26.0346 30.227 24.7766 30.2403 23.4825 29.5164C22.6362 29.0431 21.736 29.0543 20.8779 29.5352C19.6334 30.2325 18.3944 30.2606 17.1396 29.5704C16.8336 29.4021 16.5098 29.2691 16.1145 29.2117Z" fill="#1A9E96"></path>
</svg>