<svg width="124" height="124" viewBox="0 0 124 124" fill="none" xmlns="http://www.w3.org/2000/svg">
<path d="M59.4897 10.0859C68.868 9.1083 78.9051 14.0902 82.6519 23.002C84.6024 27.6414 86.9868 30.9358 91.1821 33.4668C94.9976 35.7687 97.2598 39.6079 98.9263 43.668L99.2524 44.4824L99.2573 44.4961L99.2632 44.5107C104.541 59.3715 97.7713 74.7691 83.6655 79.9502C80.9666 80.9415 78.1735 81.3885 75.2876 81.2627C74.7846 81.2408 74.0258 81.2063 73.3989 80.8867C73.0538 80.7108 72.7293 80.4419 72.5005 80.0449C72.2758 79.6548 72.183 79.2087 72.1821 78.7373C72.1813 78.268 72.2735 77.8255 72.4946 77.4365C72.719 77.042 73.0366 76.7716 73.3745 76.5908C73.9899 76.2616 74.7403 76.2033 75.2388 76.1641C80.8939 75.7188 85.5007 73.822 88.9351 70.6992C92.3694 67.5763 94.7011 63.1637 95.6968 57.5654C96.4791 53.1666 95.5364 48.3471 93.3413 44.1709C91.1459 39.9942 87.7408 36.5415 83.6958 34.8105C82.6046 34.3436 81.7235 33.7749 81.0562 32.9541C80.3897 32.1343 80.0028 31.1454 79.7563 29.9561C77.9355 21.169 70.3885 15.2768 61.4937 15.4131C52.7333 15.5473 45.46 21.6948 43.7339 30.6602C43.5601 31.5629 43.2825 32.3642 42.7642 33.0469C42.2406 33.7365 41.5354 34.2211 40.6519 34.6035C33.1092 37.8678 29.3201 43.8694 28.1147 51.9424C26.6588 61.6941 32.7649 71.4024 40.896 74.6367C43.3186 75.6003 45.8668 75.99 48.5278 76.1484C49.0408 76.179 49.8523 76.2123 50.5083 76.5254C50.8717 76.6989 51.2251 76.9716 51.4722 77.3926C51.716 77.8082 51.8086 78.2868 51.7944 78.793C51.7801 79.3057 51.6562 79.7815 51.3813 80.1836C51.1042 80.5891 50.7302 80.8365 50.3599 80.9854C49.6946 81.2526 48.8803 81.2492 48.4009 81.2646C36.7583 81.64 25.6346 72.5145 23.2183 60.7598C20.6298 48.1674 26.5389 35.0671 37.5776 30.1279C38.4677 29.7297 38.5147 29.1618 38.8794 27.8125C41.4954 18.1339 49.6456 11.1122 59.4897 10.0859Z" fill="#2C6639" stroke="#2C6639" stroke-width="2"></path>
<path d="M60.5225 49.8123C61.0069 49.5165 61.5801 49.4368 62.1846 49.4919C62.766 49.545 63.2827 49.7311 63.6924 50.0867C64.0989 50.4396 64.3129 50.8836 64.4268 51.2966C64.5378 51.6997 64.5648 52.1144 64.5713 52.4656C64.5769 52.7694 64.5648 53.219 64.5654 53.4373C64.5789 58.2625 64.5602 63.057 64.585 67.8718C64.5861 68.0866 64.5778 68.2697 64.5693 68.4304C65.9584 67.1327 67.3165 65.8673 68.6572 64.5769C69.3747 63.8863 70.078 63.1786 70.791 62.4617C71.5014 61.7473 72.2215 61.024 72.959 60.3162C73.0667 60.2128 73.1786 60.0978 73.3057 59.9675C73.4288 59.8412 73.5666 59.7 73.708 59.5623C73.9847 59.2928 74.3278 58.9852 74.7236 58.7585C75.13 58.526 75.6488 58.3464 76.2441 58.4236C76.8403 58.501 77.3639 58.8164 77.8203 59.282C78.2587 59.7292 78.5494 60.2454 78.6035 60.8308C78.6569 61.4096 78.4653 61.906 78.2334 62.2888C78.0063 62.6638 77.7054 62.9885 77.4443 63.2488C77.3112 63.3815 77.1745 63.5109 77.0537 63.6257C76.9289 63.7445 76.8199 63.8487 76.7227 63.948C74.9761 65.7314 73.1518 67.9959 70.9561 69.5974C68.2484 71.5723 66.4937 73.7918 65.4736 76.3123C64.4498 78.8421 64.1377 81.7446 64.4277 85.1228C65.0486 92.3541 64.6262 99.7083 64.5342 106.865C64.5224 107.784 64.6839 108.052 64.7715 108.139C64.8614 108.229 65.1333 108.389 66.0518 108.383C75.9916 108.308 85.9352 108.349 95.8652 108.352C96.4538 108.352 97.1353 108.337 97.8018 108.386C98.4118 108.432 99.0968 108.59 99.6562 109.007C100.262 109.458 100.621 110.139 100.644 110.991C100.667 111.853 100.338 112.561 99.7373 113.037C99.1868 113.473 98.4992 113.645 97.8916 113.702C97.2137 113.766 96.5088 113.743 95.9365 113.743C73.4269 113.751 50.917 113.759 28.4072 113.761C27.6376 113.762 26.7951 113.758 25.957 113.649C25.3809 113.575 24.7537 113.378 24.252 112.95C23.7177 112.494 23.4094 111.843 23.4004 111.058C23.3914 110.27 23.6873 109.609 24.2207 109.143C24.7199 108.707 25.3491 108.509 25.9248 108.431C26.6974 108.328 27.4947 108.351 28.1484 108.35C37.92 108.345 47.7132 108.278 57.5 108.394C58.5103 108.406 58.8982 108.205 59.0645 108.038C59.2329 107.868 59.4082 107.5 59.4062 106.587C59.3863 97.0437 59.3819 87.5001 59.3721 77.9587C59.3706 76.5507 58.8704 75.4983 57.7139 74.4812C55.3012 72.3594 53.0618 69.9857 50.7109 67.6785L50.707 67.6755C49.1594 66.1415 47.7192 64.7211 46.29 63.2927C45.8814 62.8843 45.3877 62.3137 45.1836 61.616C45.0753 61.2459 45.0467 60.8342 45.1562 60.406C45.265 59.9811 45.4947 59.6001 45.8115 59.2634C46.5003 58.5315 47.3397 58.2397 48.2061 58.4167C48.9776 58.5745 49.6163 59.0757 50.0889 59.5583C53.2149 62.7512 56.3261 65.9604 59.4375 69.1628C59.438 68.4794 59.4395 67.7972 59.4375 67.114C59.4236 62.4713 59.3831 57.8092 59.4102 53.1531C59.4115 52.9132 59.4012 52.5132 59.4141 52.1775C59.4277 51.8238 59.4683 51.3957 59.6094 50.9871C59.7563 50.5618 60.0281 50.1142 60.5225 49.8123Z" fill="#2C6639" stroke="#2C6639" stroke-width="2"></path>
</svg>