<svg width="124" height="124" viewBox="0 0 124 124" fill="none" xmlns="http://www.w3.org/2000/svg">
<rect width="124" height="124" rx="62" fill="#F5EFD2"></rect>
<path d="M49.2257 75.1807C54.1112 75.1686 54.3375 74.8612 53.014 70.449C50.6274 62.4929 46.4523 55.7146 39.6449 50.66C38.8448 50.0659 38.1185 49.3296 38.8403 48.3418C39.6473 47.2376 40.6192 47.8049 41.4637 48.4264C48.7976 53.8237 53.3562 61.0471 55.8035 69.6501C56.1653 70.9219 56.4819 72.2064 56.8048 73.4886C57.0375 74.4126 57.444 75.0758 58.586 74.9294C59.7545 74.7796 59.6871 73.9452 59.6367 73.1451C59.4832 70.7071 59.2572 68.2728 59.1381 65.8333C58.485 52.4578 61.1986 39.8286 67.8425 28.086C68.355 27.1802 69.0581 26.2952 70.2327 26.9824C71.3842 27.656 70.9662 28.6136 70.4192 29.5612C64.3578 40.0602 61.8814 51.4499 61.9763 63.4258C62.0029 66.7848 62.462 70.1402 62.711 73.4981C62.765 74.2271 62.9856 74.7978 63.8238 74.9029C64.6465 75.0059 65.3013 74.781 65.5609 73.9295C65.7726 73.2351 65.954 72.5308 66.1222 71.8248C68.3101 62.6428 72.7741 54.8487 80.487 49.0622C81.5482 48.266 82.9262 46.8389 84.0887 48.3982C85.269 49.9815 83.2853 50.5834 82.321 51.3169C75.0203 56.8701 70.9207 64.3517 68.8185 73.0254C68.3991 74.756 68.9434 75.2635 71.1101 75.1638C78.4243 74.8274 85.7346 75.3758 93.0469 75.2022C93.6496 75.1879 94.2584 75.1965 94.8562 75.2644C95.6187 75.351 96.0615 75.7977 96.0976 76.5768C96.1334 77.3507 95.7519 77.8567 94.9943 78.003C94.4735 78.1035 93.9283 78.109 93.394 78.1091C72.518 78.1116 51.6421 78.1099 30.7661 78.0993C30.1675 78.099 29.5518 78.0657 28.9746 77.9257C28.2463 77.7491 27.8295 77.2229 27.9097 76.4579C27.9804 75.784 28.4524 75.3917 29.102 75.2964C29.6957 75.2093 30.3057 75.2091 30.9086 75.2077C36.95 75.1942 42.9914 75.1883 49.2257 75.1807Z" fill="#BEA001"></path>
<path d="M40.2565 94.3036C42.5085 94.292 44.5836 94.2925 46.6588 94.2891C47.6743 94.2874 48.6362 94.4846 48.704 95.6834C48.7752 96.943 47.7696 97.1565 46.7808 97.1702C44.7062 97.1991 42.6307 97.1823 40.5558 97.1629C39.6292 97.1543 38.749 96.9503 38.6278 95.8551C38.5191 94.8729 39.1841 94.4532 40.2565 94.3036Z" fill="#BEA001"></path>
<path d="M57.2236 96.4984C56.5611 95.0418 57.3115 94.4075 58.4625 94.353C60.798 94.2424 63.1428 94.2879 65.4829 94.323C66.2956 94.3352 66.9182 94.7675 66.9629 95.6347C67.0017 96.3878 66.5097 97.0165 65.806 97.0283C62.9742 97.0758 60.0998 97.7768 57.2236 96.4984Z" fill="#BEA001"></path>
<path d="M33.3483 88.0082C32.773 87.9577 32.3691 87.944 31.9859 87.849C31.2675 87.6709 30.779 87.2183 30.8332 86.4582C30.8948 85.5942 31.5192 85.1944 32.3327 85.1842C34.6615 85.1547 36.9912 85.1556 39.3201 85.1836C40.131 85.1934 40.7796 85.5783 40.8266 86.4453C40.8796 87.4223 40.1789 87.8974 39.3147 87.9351C37.3888 88.0194 35.4578 87.9908 33.3483 88.0082Z" fill="#BEA001"></path>
<path d="M84.0703 87.5891C83.0734 86.0665 83.7412 85.2837 85.1557 85.204C87.4208 85.0763 89.6989 85.1559 91.9712 85.1765C92.8085 85.184 93.4068 85.6152 93.4827 86.4581C93.5618 87.3371 92.9641 87.8508 92.1577 87.8931C89.5028 88.0324 86.8368 88.3168 84.0703 87.5891Z" fill="#BEA001"></path>
<path d="M75.0985 87.926C72.7988 87.9833 70.665 88.0346 68.5319 88.0144C67.5717 88.0053 66.521 87.8375 66.4887 86.6154C66.4519 85.2233 67.5767 85.1613 68.6157 85.1547C70.617 85.1419 72.6185 85.153 74.6199 85.1567C75.393 85.1582 76.1366 85.2884 76.386 86.1341C76.6657 87.0829 76.1561 87.6252 75.0985 87.926Z" fill="#BEA001"></path>
<path d="M82.6142 94.2812C83.9055 94.3012 85.2012 94.3031 85.13 95.7741C85.0616 97.1887 83.7537 97.1612 82.6643 97.1697C80.9209 97.1832 79.1768 97.1993 77.434 97.1648C76.3845 97.1439 75.2639 96.9684 75.311 95.6236C75.3539 94.3974 76.4146 94.2974 77.3962 94.2906C79.0726 94.279 80.7492 94.283 82.6142 94.2812Z" fill="#BEA001"></path>
<path d="M49.2537 87.7813C47.9906 86.126 48.33 85.2605 50.1985 85.1824C52.2735 85.0957 54.355 85.1529 56.4336 85.1645C57.3181 85.1695 58.0913 85.4568 58.1425 86.4506C58.1989 87.5477 57.3805 87.9781 56.4391 87.9936C54.0982 88.0322 51.7509 88.1679 49.2537 87.7813Z" fill="#BEA001"></path>
</svg>