<svg width="50" height="50" viewBox="0 0 50 50" fill="none" xmlns="http://www.w3.org/2000/svg">
<circle cx="24.9531" cy="25.042" r="24.125" fill="#F9F8F8"></circle>
<path d="M16.1719 3.17763C12.9244 4.43325 10.2057 6.33513 7.83192 8.77325C5.06817 11.6139 3.29816 15.0276 2.27816 18.7914C1.42129 21.9526 1.02567 25.2051 1.81129 28.4776C2.14317 29.8539 2.53129 31.2176 2.80129 32.6058C2.85941 32.9108 2.52192 33.2933 2.36817 33.6401C2.06067 33.4751 1.56192 33.377 1.47754 33.1345C0.148167 29.3364 -0.359958 25.4845 0.266292 21.4351C1.07442 16.202 3.12192 11.6176 6.72942 7.77013C9.83817 4.45763 13.6163 2.23138 18.015 0.984501C21.5532 -0.0179992 25.1157 -0.272374 28.7138 0.302001C32.7432 0.945126 36.4782 2.43888 39.69 4.972C41.5575 6.44388 43.2038 8.19387 44.9457 9.8145C44.9457 9.07075 44.9569 8.16138 44.9419 7.25263C44.9325 6.73075 45.0488 6.20325 45.6469 6.3195C45.9563 6.3795 46.3838 6.917 46.3913 7.24638C46.4269 8.8045 46.3688 10.3683 46.2563 11.9233C46.2375 12.1833 45.7763 12.6295 45.5363 12.6195C43.9519 12.5545 42.3675 12.4226 40.7963 12.2195C40.5263 12.1851 40.3144 11.7039 40.0763 11.4289C40.3669 11.2101 40.65 10.8176 40.9463 10.8064C41.7788 10.7758 42.6169 10.9039 43.62 10.982C41.2707 7.73138 38.3288 5.357 34.8244 3.75013C28.74 0.960751 22.515 0.789501 16.1719 3.17763Z" fill="#066653"></path>
<path d="M47.9511 27.7564C47.9511 26.1451 48.0261 24.6158 47.9249 23.0976C47.8461 21.9001 47.5517 20.7164 47.3474 19.527C47.3324 19.4383 47.2349 19.3583 47.2349 19.2739C47.2311 18.6645 46.8317 17.7845 47.7636 17.6514C48.5586 17.5376 48.5493 18.3764 48.7274 18.9745C49.4624 21.4576 49.5505 23.9908 49.4605 26.5495C49.2955 31.2339 47.773 35.4539 45.1611 39.3176C42.1967 43.7008 38.1242 46.6601 33.2305 48.4989C29.6624 49.8395 25.9536 50.2183 22.1417 49.817C17.5536 49.3345 13.4211 47.7426 9.79486 44.932C8.19924 43.6945 6.79112 42.2151 5.21424 40.7689C5.21424 41.5633 5.20111 42.3508 5.21799 43.1376C5.23111 43.7114 5.07174 44.152 4.41737 44.1314C3.81549 44.1126 3.68987 43.6795 3.69549 43.1526C3.70862 41.747 3.70674 40.342 3.70111 38.9364C3.69924 38.1851 4.04236 37.8526 4.80361 37.9358C6.10486 38.0783 7.40612 38.1945 8.70737 38.3339C9.21549 38.3889 9.77049 38.4583 9.69549 39.1708C9.62049 39.8814 9.06924 39.6876 8.61549 39.677C7.99486 39.6626 7.37236 39.6733 6.55299 39.6733C7.00861 40.2233 7.36486 40.7026 7.77174 41.1345C10.7286 44.2758 14.2667 46.4326 18.4499 47.5733C21.3111 48.3533 24.1799 48.6114 27.1274 48.282C36.3167 47.2545 42.6261 42.317 46.3124 33.9895C47.1599 32.0745 47.4205 29.8989 47.9511 27.7564Z" fill="#066653"></path>
<path d="M33.2737 19.4263C32.4262 18.9913 31.4212 18.7607 30.915 18.1307C30.4125 17.5032 30.5231 16.4245 30.1688 15.6307C29.1263 13.2951 26.6962 11.8926 24.2737 12.112C21.4837 12.3645 19.395 14.0051 18.6938 16.6001C18.3881 17.7245 17.8763 18.4626 16.7925 19.107C14.2069 20.647 13.0725 23.1388 13.4981 26.107C13.8769 28.7463 15.3019 30.7963 17.91 31.757C18.7931 32.082 19.7681 32.2013 20.7113 32.2988C21.3 32.3595 21.9881 32.3326 21.9994 33.0313C22.0125 33.7026 21.3075 33.842 20.7375 33.8538C17.9813 33.9113 15.66 32.9357 13.9069 30.787C12.2381 28.7407 11.565 26.3163 11.9925 23.7595C12.4538 21.0107 13.8319 18.7532 16.5075 17.5045C16.7325 17.4001 16.9631 17.1007 17.01 16.8576C17.5988 13.7576 19.5356 11.762 22.425 10.8901C26.3231 9.71322 30.2944 11.5457 31.8038 15.6338C32.1544 16.5845 32.505 17.2738 33.5006 17.7763C35.9306 19.0026 37.1456 21.1238 37.53 23.8176C38.0269 27.3213 36.8944 30.1126 34.1325 32.2657C32.5538 33.4951 30.7294 33.9563 28.7513 33.8507C28.5675 33.8407 28.3462 33.8332 28.2112 33.7326C27.9187 33.5145 27.6694 33.237 27.4031 32.9832C27.7537 32.747 28.0781 32.3832 28.4625 32.2995C29.5669 32.0595 30.7781 32.137 31.7981 31.7226C34.8544 30.4807 36.4669 27.3657 36.0619 24.212C35.8088 22.2301 34.9406 20.6438 33.2737 19.4263Z" fill="#066653"></path>
<path d="M20.1797 27.5958C20.6466 27.0939 21.0234 27.1595 21.4453 27.5958C22.2253 28.4014 23.0503 29.167 23.9522 30.0426C23.9522 28.5576 23.9578 27.1458 23.9484 25.7333C23.9447 25.1608 23.9916 24.6614 24.7472 24.6414C25.5272 24.6208 25.4578 25.1614 25.4578 25.667C25.4578 27.1183 25.4578 28.5701 25.4578 30.2258C26.3391 29.3039 27.0628 28.5133 27.8259 27.7595C28.1897 27.3995 28.6228 26.9183 29.1553 27.4933C29.6184 27.9933 29.3241 28.3939 28.9153 28.827C27.8466 29.9589 26.8172 31.1289 25.8122 32.3183C25.6041 32.5645 25.4766 32.9589 25.4728 33.2864C25.4447 35.5001 25.4428 37.7139 25.4709 39.9276C25.4784 40.5101 25.3528 40.9433 24.7097 40.9251C24.0759 40.9076 23.9372 40.4551 23.9428 39.8783C23.9634 37.6333 23.9784 35.3876 23.9353 33.1433C23.9278 32.7301 23.7403 32.2364 23.4684 31.9289C22.5103 30.8458 21.4528 29.8501 20.4947 28.7676C20.2603 28.5051 20.2584 28.0364 20.1797 27.5958Z" fill="#066653"></path>
</svg>