<svg width="50" height="50" viewBox="0 0 50 50" fill="none" xmlns="http://www.w3.org/2000/svg">
<path d="M14.0162 42.9397C11.2526 40.7316 8.7411 38.39 7.08343 35.268C5.81378 32.8801 5.06434 30.3327 5.03962 27.639C4.98155 21.2178 5.03962 14.7965 5.00008 8.37411C4.9939 7.40904 5.34236 7.10692 6.24997 6.98953C8.4711 6.70224 10.7207 6.47363 12.8812 5.92005C16.5487 4.98032 19.9827 3.44437 23.1608 1.33816C25.7712 -0.391172 24.9044 -0.514743 27.7304 1.38141C30.6009 3.30721 33.6752 4.86292 37.0709 5.62348C39.6102 6.19251 42.1816 6.62934 44.7531 7.03773C45.6348 7.17736 45.7552 7.65124 45.754 8.36237C45.7453 13.0246 45.783 17.6856 45.7324 22.349C45.7052 24.9019 45.7089 27.4752 45.3839 30.0003C45.0064 32.9332 43.7083 35.5454 41.8962 37.9204C39.2821 41.3494 35.8414 43.7856 32.3129 46.1185C30.3117 47.4395 28.2389 48.6585 26.1524 49.8459C25.786 50.0535 25.0774 50.0535 24.7258 49.833C21.1485 47.5877 17.612 45.2776 14.0162 42.9397ZM44.0624 23.5594C44.0624 18.5981 44.0624 13.6369 44.0624 8.76582C41.2753 8.18011 38.5142 7.74453 35.8389 7.00189C32.3351 6.02941 29.0933 4.41808 26.1605 2.2402C25.631 1.84725 25.2411 1.86951 24.6776 2.22291C23.0873 3.22134 21.4859 4.22099 19.8078 5.05693C17.1264 6.3927 14.3029 7.36333 11.3329 7.86131C9.73891 8.12822 8.14612 8.40377 6.54283 8.67748C6.53232 8.83811 6.51749 8.95859 6.51749 9.08031C6.51749 14.9127 6.49587 20.7451 6.5385 26.5787C6.54715 27.7681 6.70408 28.9741 6.9506 30.1393C7.6432 33.4127 9.22239 36.2343 11.5937 38.5889C15.5126 42.4776 20.1557 45.3697 24.9149 48.0851C25.204 48.2501 25.783 48.1685 26.0999 47.9832C27.9639 46.8976 29.8212 45.7935 31.6234 44.6079C34.7138 42.5758 37.6825 40.393 40.0927 37.533C42.1026 35.1488 43.4637 32.4439 43.89 29.372C44.1482 27.5203 44.0185 25.6155 44.0624 23.5594Z" fill="#BEA001"></path>
<path d="M20.949 19.9043C22.0185 22.0791 23.0657 24.1896 24.0339 26.1401C24.0339 26.0827 24.0536 25.7805 24.0308 25.4827C23.754 21.8276 24.137 18.2225 25.107 14.7076C25.5401 13.1389 26.3341 11.6703 26.9729 10.1597C27.0434 9.99351 27.1416 9.77602 27.2837 9.71547C27.6087 9.57708 27.9683 9.52086 28.3142 9.43127C28.3834 9.77479 28.6213 10.2054 28.4959 10.4489C27.2009 12.9598 26.2105 15.5856 25.8552 18.3813C25.6161 20.2657 25.681 22.1903 25.6631 24.0963C25.6551 24.9539 25.7755 25.812 26.0474 26.8179C26.2068 26.6047 26.4422 26.4157 26.5139 26.1766C27.584 22.603 29.1922 19.3587 32.1331 16.9281C32.5532 16.5797 32.9888 16.2022 33.4849 16.015C33.8019 15.8945 34.2418 16.0984 34.6261 16.1577C34.5056 16.5247 34.5001 17.0597 34.248 17.2303C30.8721 19.5051 29.1057 22.8124 28.0523 26.6566C29.0365 26.8475 29.697 26.6955 30.4019 25.8269C31.2397 24.7932 32.4371 24.037 33.5405 23.2462C33.7735 23.0793 34.4784 23.1535 34.6125 23.3537C34.8837 23.7596 34.8269 24.202 34.2301 24.5486C33.3144 25.0805 32.5038 25.7935 31.6487 26.4311C31.6864 26.5368 31.7241 26.6424 31.7612 26.7481C32.599 26.7481 33.4368 26.7462 34.2745 26.7481C35.4169 26.7481 36.5599 26.7685 37.7017 26.7444C38.351 26.7314 39.0041 26.8574 39.0165 27.5704C39.0301 28.3242 38.3257 28.3872 37.7128 28.3872C31.0123 28.3891 24.3119 28.3909 17.6114 28.3928C16.1601 28.3928 14.7088 28.3891 13.2575 28.3891C12.6669 28.3891 11.9644 28.4243 11.9767 27.6149C11.9878 26.8889 12.5834 26.7444 13.247 26.7536C15.09 26.7796 16.933 26.7629 18.7767 26.7629C18.8267 26.6758 18.8761 26.5887 18.9262 26.5016C18.0828 25.8442 17.2648 25.1491 16.3838 24.5473C15.9599 24.2563 15.4502 24.0691 15.7252 23.4562C16.0236 22.7914 16.5877 22.9206 17.0313 23.256C18.2144 24.1507 19.4062 25.0441 20.4998 26.0407C21.235 26.711 21.1621 26.7907 22.2156 26.6758C21.4204 23.0744 19.7263 20.0247 16.8268 17.6924C16.6593 17.5571 16.4072 17.4366 16.3603 17.2642C16.2855 16.9899 16.2404 16.5865 16.3881 16.4104C16.5364 16.2324 17.0665 16.112 17.2055 16.2306C18.2459 17.1141 19.2388 18.0557 20.2292 18.9967C20.4924 19.2463 20.6963 19.5577 20.949 19.9043Z" fill="#BEA001"></path>
<path d="M23.7242 34.9399C24.8517 34.9325 25.9021 34.9418 26.9518 34.9418C27.5764 34.9418 28.0682 35.1179 28.0435 35.855C28.0188 36.568 27.5356 36.7552 26.9079 36.744C25.9818 36.7311 25.0457 36.8052 24.1326 36.694C23.7211 36.644 23.3528 36.238 22.9648 35.9921C23.1916 35.6455 23.4196 35.2977 23.7242 34.9399Z" fill="#BEA001"></path>
<path d="M29.1226 30.8585C29.7349 30.8567 30.2607 30.8233 30.7803 30.8678C31.3579 30.916 31.7602 31.181 31.7188 31.8588C31.6805 32.4945 31.3079 32.6811 30.7376 32.6737C29.7219 32.6644 28.7062 32.6496 27.6911 32.6774C27.0899 32.6941 26.6167 32.3975 26.7062 31.8755C26.7717 31.4899 27.2617 31.0605 27.6639 30.8863C28.0531 30.7195 28.5721 30.8567 29.1226 30.8585Z" fill="#BEA001"></path>
<path d="M24.1945 32.4797C22.8538 32.5687 21.5705 32.6669 20.2934 32.6132C20.0179 32.6002 19.5088 31.9799 19.5625 31.7426C19.6429 31.3905 20.1044 30.9036 20.4442 30.8702C21.51 30.7609 22.5986 30.7794 23.6699 30.8591C24.4422 30.916 24.6832 31.6697 24.1945 32.4797Z" fill="#BEA001"></path>
<path d="M16.1837 36.6149C15.9742 36.2387 15.6153 35.7629 15.7228 35.6072C15.9409 35.2921 16.395 35.0048 16.778 34.9665C17.6628 34.8757 18.5636 34.9313 19.4576 34.9461C20.0773 34.9554 20.6673 35.2131 20.5407 35.8778C20.4746 36.2226 19.866 36.6705 19.4712 36.7039C18.4042 36.7941 17.3211 36.6866 16.1837 36.6149Z" fill="#BEA001"></path>
<path d="M34.3577 34.9288C34.9978 35.066 35.5149 35.4015 35.2795 35.9755C35.1331 36.3332 34.5319 36.6532 34.0976 36.7126C33.2511 36.8256 32.3787 36.7348 31.5168 36.7441C30.8521 36.7533 30.3485 36.3919 30.4406 35.7957C30.4925 35.4565 31.1072 35.016 31.5144 34.9604C32.4207 34.8362 33.3555 34.9251 34.3577 34.9288Z" fill="#BEA001"></path>
<path d="M13.9986 30.8492C14.8506 30.8492 15.6198 30.8529 16.3884 30.8437C17.0823 30.8344 17.5914 31.1977 17.5728 31.844C17.5555 32.4519 17.0365 32.7201 16.3767 32.683C15.5797 32.6366 14.7759 32.6385 13.9782 32.6793C13.2992 32.7126 12.7704 32.5162 12.7432 31.7976C12.716 31.0698 13.2498 30.8288 13.9986 30.8492Z" fill="#BEA001"></path>
<path d="M35.6144 32.6725C35.2171 32.6725 34.9088 32.6558 34.603 32.6762C34.0383 32.7114 33.5495 32.4964 33.6014 31.9225C33.6342 31.5647 34.0463 30.9852 34.3367 30.9537C35.4272 30.835 36.5448 30.8332 37.6366 30.9426C37.914 30.9704 38.3329 31.5709 38.3205 31.8928C38.3106 32.1634 37.7972 32.5576 37.4481 32.6373C36.8927 32.7615 36.2878 32.6706 35.6144 32.6725Z" fill="#BEA001"></path>
</svg>