<svg width="50" height="50" viewBox="0 0 50 50" fill="none" xmlns="http://www.w3.org/2000/svg">
<path d="M42.7073 8.81793C39.7043 8.45279 36.7426 7.9214 33.8836 6.88016C30.7901 5.75334 27.9189 4.22074 25.2779 2.26758C24.7336 1.86488 24.3857 1.87843 23.858 2.27682C20.7577 4.61913 17.3021 6.30813 13.599 7.41956C11.6557 8.00329 9.60893 8.24159 7.60897 8.63752C7.27955 8.70279 6.95135 8.77421 6.53819 8.86042C6.53819 9.196 6.53819 9.52851 6.53819 9.86039C6.53757 15.7667 6.48154 21.6735 6.55666 27.5786C6.60345 31.2368 7.84665 34.5353 10.072 37.4527C10.556 38.0876 11.0276 38.7317 11.5695 39.4582C10.9482 39.6608 10.527 39.7981 10.043 39.9564C8.13359 37.683 6.54804 35.2348 5.73402 32.2878C5.15275 30.1844 5.00128 28.0755 5.00435 25.9265C5.01359 20.1132 5.03329 14.2999 5.00004 8.48665C4.99573 7.65108 5.31469 7.34875 6.06775 7.2373C7.87929 6.96945 9.72346 6.80689 11.4851 6.34077C14.2406 5.6111 16.9573 4.69795 19.4154 3.19921C20.911 2.28729 22.366 1.3064 23.8057 0.307655C24.3925 -0.0993559 24.8099 -0.116594 25.406 0.340907C28.4989 2.71524 31.8443 4.60436 35.6231 5.71332C38.0042 6.41158 40.3859 7.00393 42.8674 7.17326C43.642 7.22622 44.3809 7.40602 44.1359 8.54269C43.5158 8.0741 43.1223 8.51498 42.7073 8.81793Z" fill="#1A9E96"></path>
<path d="M27.6003 26.0072C27.394 26.2424 27.1871 26.4783 26.9112 26.6618C26.6064 25.9838 26.2764 26.1279 25.8885 26.4733C25.16 27.1211 24.4174 27.7522 23.6804 28.3902C23.4704 28.1703 23.2309 27.9714 23.0548 27.7276C22.1693 26.5035 21.1195 25.966 19.4761 25.9025C16.8019 25.7997 14.9681 24.0811 13.9435 21.6459C13.5378 20.681 13.3955 19.5991 13.1886 18.5591C13.076 17.9926 13.4362 17.7057 13.9756 17.6613C17.731 17.3535 20.9606 19.3774 22.0954 23.0916C22.4501 24.2523 22.3959 25.6347 23.8934 26.3299C23.8934 25.2702 23.8165 24.2154 23.9125 23.1772C24.0418 21.7764 23.6348 20.6409 22.8066 19.5C20.1749 15.8763 21.0832 11.6393 23.9464 8.63383C24.4322 8.12399 24.846 8.16464 25.2456 8.63076C28.2924 12.1861 29.0091 15.7026 26.338 19.6514C25.6705 20.6379 25.2696 21.5455 25.3534 22.7314C25.4322 23.849 25.3706 24.9764 25.3706 26.28C26.1083 25.5546 26.9734 25.1624 26.9919 24.0485C27.253 24.6716 27.4266 25.3391 27.6003 26.0072ZM25.3719 18.4932C27.4254 15.8085 26.6939 11.9078 24.4919 10.14C22.1669 12.8018 21.7346 16.0912 24.5344 19.6976C24.8029 19.3276 25.0609 18.9717 25.3719 18.4932ZM20.4083 22.3866C19.1454 20.1668 17.3043 18.9396 14.6824 18.9643C14.6332 22.0683 17.4121 24.9136 21.0856 24.6957C20.8787 23.9438 20.6817 23.2246 20.4083 22.3866Z" fill="#1A9E96"></path>
<path d="M36.2671 43.702C34.37 44.7481 32.5616 44.54 30.7919 43.5893C29.6133 42.9563 28.473 42.9656 27.316 43.6078C25.4546 44.641 23.5833 44.5905 21.7361 43.5942C20.5551 42.9575 19.443 42.9846 18.2608 43.6287C16.3809 44.6521 14.4641 44.593 12.5897 43.5727C11.4746 42.9656 10.3964 43.0167 9.2776 43.5776C8.88044 43.7771 8.38907 43.9323 7.96482 43.8861C7.65325 43.8522 7.37986 43.4588 7.08984 43.226C7.30351 42.9686 7.46914 42.6269 7.74131 42.4729C8.21112 42.2069 8.76222 42.0881 9.25297 41.8529C10.8656 41.0795 12.3262 41.5844 13.7824 42.3209C14.9099 42.891 16.041 42.8652 17.2066 42.3424C17.9997 41.9865 18.847 41.5709 19.6832 41.5401C20.5464 41.5081 21.499 41.7624 22.2828 42.1521C23.7397 42.8769 25.1529 43.0167 26.5512 42.2026C28.3073 41.1805 30.0056 41.2224 31.7143 42.239C33.1022 43.0653 34.4889 42.8449 35.7961 42.1374C37.4204 41.2587 38.9721 41.2211 40.5608 42.1657C40.7855 42.2993 41.1143 42.2648 41.3268 42.4089C41.5872 42.5856 41.9536 42.872 41.9487 43.1047C41.9437 43.3633 41.5761 43.8245 41.3606 43.8282C40.812 43.8368 40.2104 43.7426 39.719 43.5049C38.5319 42.9292 37.4291 42.9495 36.2671 43.702Z" fill="#1A9E96"></path>
<path d="M42.7127 8.90351C43.1247 8.51497 43.5181 8.0741 44.1247 8.61473C44.1949 15.1435 44.3845 21.6717 44.1493 28.1839C43.9898 32.6 42.2183 36.5562 39.1839 39.8603C37.4524 39.4145 37.4776 39.4348 38.6303 38.0574C40.9141 35.3272 42.1801 32.1628 42.5299 28.629C42.6118 27.8064 42.7097 26.9801 42.7115 26.1556C42.7257 20.434 42.7171 14.7119 42.7127 8.90351Z" fill="#1A9E96"></path>
<path d="M27.6872 25.9979C27.4286 25.3397 27.255 24.6716 27.0234 23.9795C27.0961 21.2339 30.1034 18.0985 32.6791 17.8466C33.4685 17.7697 34.269 17.641 35.0485 17.7124C35.3576 17.7407 35.8607 18.2401 35.8711 18.5387C35.9684 21.3293 34.1723 24.7572 31.0215 25.5983C29.9778 25.8772 28.8578 25.8661 27.6872 25.9979ZM32.9075 22.8884C33.8367 21.7591 34.5454 20.5399 34.5959 19.0165C31.1767 18.7746 27.9828 21.7265 28.4218 24.6168C29.9938 24.6488 31.3632 24.3114 32.9075 22.8884Z" fill="#1A9E96"></path>
<path d="M23.6844 28.424C24.4189 27.7516 25.1615 27.1204 25.89 26.4727C26.2779 26.1279 26.6085 25.9838 26.8524 26.6765C26.3832 27.3169 25.9047 27.8895 25.4165 28.4739C25.9909 28.6838 26.5445 28.8864 27.1578 29.19C27.0925 29.6696 26.9688 30.0483 26.7828 30.4246C26.656 30.5354 26.5907 30.6487 26.4614 30.7885C26.047 30.9289 25.6966 31.0434 25.3469 31.1579C25.0766 30.8507 24.8069 30.544 24.5033 30.1986C22.5742 32.7977 21.7281 35.6997 21.5101 38.8209C21.4954 39.0352 21.5699 39.316 21.4603 39.4508C21.2398 39.7236 20.9221 39.9182 20.6444 40.1448C20.44 39.8806 20.0373 39.5943 20.0637 39.356C20.2331 37.8431 20.3544 36.3 20.7712 34.8469C21.1918 33.3808 21.9375 32.007 22.4849 30.5329C22.4288 30.4732 22.4245 30.4861 22.4787 30.4855C22.9208 29.8322 23.3087 29.1789 23.6967 28.5262C23.6961 28.5268 23.6868 28.4585 23.6844 28.424Z" fill="#1A9E96"></path>
<path d="M30.2391 47.075C28.5471 48.0165 26.9252 48.9457 25.2713 49.8139C24.9517 49.9814 24.4166 50.0762 24.1346 49.9223C21.9148 48.7105 19.732 47.4303 17.5399 46.168C17.4931 46.1416 17.4734 46.0689 17.4414 46.0172C18.3687 45.1853 18.8718 45.1637 19.8601 45.7592C21.1538 46.5387 22.4955 47.2382 23.7904 48.0171C24.3452 48.3509 24.8199 48.3219 25.3519 48.0091C26.5976 47.2764 27.9344 46.6717 29.0852 45.8152C30.0834 45.072 30.882 45.3349 31.9879 45.9143C31.3518 46.3386 30.8253 46.6902 30.2391 47.075Z" fill="#1A9E96"></path>
<path d="M26.8438 30.4283C26.9675 30.049 27.0919 29.6703 27.2169 29.2245C29.651 29.9381 31.4132 31.5649 32.7716 33.6536C33.936 35.4454 34.7875 37.3641 35.0486 39.5303C35.125 40.1633 34.9341 40.6103 34.4446 40.6196C34.141 40.6257 33.673 40.09 33.5443 39.7082C33.2063 38.7083 33.1496 37.6011 32.7383 36.6412C31.5752 33.9282 29.84 31.7041 26.893 30.7078C26.845 30.7799 26.853 30.7774 26.9066 30.7306C26.9213 30.5988 26.8825 30.5133 26.8438 30.4283Z" fill="#1A9E96"></path>
<path d="M22.4224 30.4868C22.4224 30.4868 22.4267 30.4738 22.4304 30.4677C20.17 31.4516 18.3923 32.9818 17.1245 35.119C16.2895 36.526 15.7883 38.0365 15.5913 39.6448C15.5192 40.2335 15.3382 40.739 14.7046 40.6269C14.1202 40.5229 13.8863 40.1165 14.0365 39.3868C14.7151 36.0956 16.0543 33.1973 18.6959 31.0169C19.2488 30.56 19.8627 30.177 20.529 29.8101C21.2143 30.0681 21.8183 30.2774 22.4224 30.4868Z" fill="#1A9E96"></path>
<path d="M25.3555 31.2257C25.696 31.044 26.0457 30.9295 26.5217 30.8088C26.7163 30.794 26.7846 30.7854 26.8536 30.7768C26.8536 30.7768 26.8456 30.7793 26.845 30.7756C27.2754 31.8476 27.8449 32.8913 28.106 34.0076C28.5327 35.8327 28.7784 37.7021 29.0395 39.5617C29.066 39.7501 28.6799 40.1633 28.4712 40.1731C28.2292 40.1848 27.9121 39.909 27.7409 39.675C27.6171 39.5063 27.6688 39.2021 27.659 38.9577C27.5494 36.2065 26.76 33.6591 25.3555 31.2257Z" fill="#1A9E96"></path>
<path d="M22.4771 30.4868C21.8189 30.278 21.2148 30.0687 20.5898 29.794C21.564 29.3353 22.559 28.9418 23.6243 28.5379C23.3071 29.1801 22.9192 29.8328 22.4771 30.4868Z" fill="#1A9E96"></path>
<path d="M26.9074 30.7306C26.7848 30.7854 26.7165 30.794 26.5859 30.7829C26.5896 30.6493 26.6549 30.536 26.7824 30.4252C26.8827 30.5132 26.9215 30.5988 26.9074 30.7306Z" fill="#F9F8F8"></path>
</svg>