<svg width="50" height="50" viewBox="0 0 50 50" fill="none" xmlns="http://www.w3.org/2000/svg">
<path d="M33.5177 38.6753C32.6519 38.3246 31.8531 38.018 31.0822 37.6487C30.0134 37.1367 28.9687 37.2515 27.993 37.8008C26.0155 38.9137 24.0213 39.0738 22.0307 37.9411C20.6938 37.1795 19.4574 37.2068 18.1241 37.9417C16.1634 39.0211 14.1989 38.9745 12.2568 37.8002C11.8565 37.5575 11.3016 37.5792 10.8733 37.3675C10.3259 37.0982 9.83614 36.7158 9.28125 36.3571C10.4115 35.5266 11.4636 35.7333 12.5212 36.2379C12.9346 36.4347 13.3554 36.6178 13.7576 36.8338C15.2752 37.6456 16.601 36.8797 17.9677 36.3583C18.733 36.0666 19.5281 35.8487 20.4722 35.5452C20.5392 32.839 21.3418 30.1434 22.9115 27.5049C21.6825 27.5781 20.9023 28.2273 20.1761 28.8561C18.2079 30.5624 16.8747 32.6541 16.4483 35.2858C16.3105 36.138 15.6104 35.7147 15.1132 35.6954C14.7278 32.6174 18.2489 26.5093 24.0399 25.5627C23.2951 24.718 22.6433 23.9229 21.919 23.201C21.7514 23.0335 21.3325 23.0645 21.0345 23.0887C17.3477 23.391 14.266 20.2236 13.8377 17.1568C13.8302 17.096 13.8098 17.037 13.793 16.9774C13.2418 14.9006 13.5211 14.6052 15.683 14.7206C19.5914 14.9292 22.4031 18.1133 22.7718 21.5817C22.8444 22.2619 23.5446 22.8752 23.9561 23.5195C24.0566 23.4779 24.1572 23.4363 24.2596 23.3947C24.2596 21.6797 24.4216 19.9437 24.1907 18.2604C24.0753 17.4138 23.2448 16.6659 22.7439 15.8701C20.6826 12.6022 21.7607 8.69068 24.0957 6.2725C24.5929 5.75919 25.1068 5.77657 25.5835 6.28801C27.8887 8.76268 28.8924 11.5812 27.6094 14.8702C27.2314 15.8447 26.4959 16.6764 25.9801 17.6056C25.766 17.9892 25.604 18.4528 25.591 18.8848C25.5444 20.3707 25.5724 21.8591 25.5724 23.548C26.3432 22.6102 27.1905 22.1093 27.3376 20.74C27.6169 18.1232 29.3002 16.2742 31.7134 15.2917C32.7599 14.8665 33.987 14.8528 35.1414 14.7461C35.8974 14.6759 36.2885 15.1191 36.201 15.9068C35.795 19.6054 33.2664 23.0415 28.8216 23.0986C28.3896 23.1042 27.8813 23.3332 27.5443 23.6188C26.913 24.155 26.3823 24.8092 25.7697 25.4591C30.9202 26.9487 33.8287 30.3594 34.8286 35.5024C33.4433 36.0703 33.4712 36.0231 33.1975 34.8656C32.4191 31.5728 30.518 29.1186 27.4828 27.5793C27.3339 27.5042 27.1346 27.5322 26.7641 27.4906C28.2276 30.1043 29.1494 32.7298 29.1587 35.4037C30.5087 35.9108 31.8102 36.2975 33.0168 36.8834C34.1825 37.4495 35.1712 37.0268 36.2065 36.6413C37.4876 36.1647 38.7036 35.4099 40.182 36.0132C40.6736 36.2137 41.1931 36.2925 41.0237 36.961C40.8449 37.6711 40.1969 37.7679 39.6942 37.5339C38.8264 37.1304 38.117 37.4774 37.3964 37.7989C36.1823 38.342 34.9776 38.8727 33.5177 38.6753ZM22.7774 31.129C22.4776 32.6584 22.1685 34.1865 21.8967 35.7209C21.8687 35.8785 22.0158 36.169 22.1592 36.2385C23.3677 36.8232 24.5129 37.5122 25.9988 36.938C27.6821 36.2888 27.7249 36.3776 27.6355 34.5732C27.4977 31.8124 26.4903 29.3737 24.7288 26.8923C24.0287 28.3751 23.4105 29.6785 22.7774 31.129ZM23.7178 14.9633C24.0827 15.5542 24.4477 16.1445 24.8257 16.7571C27.7491 13.0845 27.2165 10.22 24.7791 7.48779C23.0213 9.72909 22.405 12.1491 23.7178 14.9633ZM15.3404 17.7719C16.1001 20.2416 18.7908 22.0261 21.2431 21.6866C21.6267 19.3497 18.7107 15.6827 14.8898 16.1538C15.0313 16.6603 15.1672 17.1438 15.3404 17.7719ZM29.397 18.9854C29.0637 19.8624 28.7285 20.7394 28.3617 21.7015C32.3204 21.7859 34.8752 18.5248 34.6219 15.993C32.4564 16.1687 30.6874 17.0023 29.397 18.9854Z" fill="#1A9E96"></path>
<path d="M43.2854 10.7817C42.0509 9.46712 40.9206 8.03272 39.5613 6.86149C36.4834 4.20744 32.8356 2.53718 28.8564 1.91836C20.2071 0.574574 12.8297 3.17462 7.01076 9.74953C4.63478 12.4327 3.14328 15.6386 2.26625 19.151C1.38736 22.6697 1.35198 26.1747 1.97205 29.7107C2.09867 30.4345 2.3128 31.1514 2.56977 31.8403C2.79694 32.4492 2.70383 32.9191 2.08563 33.0879C1.54005 33.2368 1.3315 32.8495 1.16578 32.3263C-0.107866 28.321 -0.346208 24.2307 0.491716 20.1528C1.60895 14.7138 4.11527 9.99222 8.3533 6.2619C10.962 3.96599 13.9004 2.27153 17.1999 1.25174C20.5572 0.213336 23.9983 -0.370732 27.5213 0.262366C35.7273 1.73711 38.9282 3.55448 44.762 10.0152C44.762 8.98981 44.7043 8.07431 44.7937 7.17307C44.8253 6.8528 45.168 6.37114 45.4473 6.30846C46.0189 6.18059 46.2405 6.64301 46.2386 7.17804C46.2386 8.66644 46.2442 10.1548 46.2256 11.6432C46.2182 12.2819 45.9407 12.7282 45.2164 12.6469C43.7454 12.4799 42.2687 12.3223 40.8108 12.0696C40.5315 12.0212 40.3248 11.5526 40.0846 11.2777C40.3601 11.0735 40.632 10.7048 40.9113 10.6979C41.6133 10.6806 42.3209 10.827 43.1514 10.927C43.3264 10.935 43.3767 10.9232 43.4269 10.9115C43.3804 10.8686 43.332 10.8252 43.2854 10.7817Z" fill="#1A9E96"></path>
<path d="M31.3732 49.1326C28.4424 49.9606 25.5506 50.1232 22.5844 49.9221C19.0129 49.68 15.7525 48.5628 12.654 46.8851C9.79577 45.3371 7.4589 43.1418 5.31381 40.7304C5.23747 40.6435 5.15368 40.5616 4.91906 40.3145C4.91906 41.2809 4.90788 42.0649 4.92278 42.8488C4.93395 43.3882 4.87064 43.8841 4.19658 43.904C3.52624 43.9238 3.41824 43.4552 3.42197 42.8997C3.435 41.4423 3.44058 39.985 3.42382 38.5276C3.41637 37.8597 3.705 37.5333 4.36975 37.5935C5.78491 37.7213 7.20007 37.8436 8.60964 38.0168C9.09564 38.0763 9.46061 38.3315 9.3973 38.9503C9.33026 39.5908 8.87405 39.4617 8.49792 39.4518C7.76241 39.4319 7.02876 39.3717 6.09215 39.3165C7.03063 40.335 7.83317 41.3076 8.74185 42.1716C11.7267 45.0125 15.2367 46.9534 19.242 47.9067C21.6217 48.4728 24.0479 48.6007 26.517 48.443C30.2616 48.2047 33.6468 47.0117 36.8253 45.118C41.2161 42.5006 44.2791 38.7243 46.2362 34.0518C47.6699 30.6269 48.3608 27.0431 47.925 23.3221C47.7537 21.8628 47.3627 20.4297 47.0704 18.9853C46.9624 18.4615 46.8115 17.8731 47.5284 17.7104C48.195 17.559 48.3663 18.0177 48.5283 18.6117C49.2918 21.4091 49.707 24.237 49.4072 27.1337C48.4539 36.3769 43.8732 43.1989 35.6318 47.5064C34.3153 48.1947 32.848 48.5963 31.3732 49.1326Z" fill="#1A9E96"></path>
<path d="M43.2566 10.8078C43.3311 10.8252 43.3795 10.8686 43.4261 10.9121C43.3758 10.9239 43.3255 10.9357 43.2287 10.9208C43.1859 10.8941 43.2306 10.8345 43.2566 10.8078Z" fill="#F9F8F8"></path>
</svg>