<svg width="124" height="124" viewBox="0 0 124 124" fill="none" xmlns="http://www.w3.org/2000/svg">
<rect width="124" height="124" rx="62" fill="#DDF1EF"></rect>
<path d="M59.471 64.7989C59.8541 65.0583 60.1421 65.2504 60.7855 65.6795C60.7855 62.9712 60.7855 60.588 60.7855 58.2047C60.7855 57.6031 60.7386 56.9971 60.7932 56.4005C61.0198 53.9224 60.3568 51.8815 58.8783 49.734C53.7141 42.2328 54.1705 32.7554 59.6754 25.6773C61.5571 23.2579 62.4444 23.2559 64.406 25.6663C69.9454 32.4728 70.2722 42.7976 65.0348 50.0304C63.8713 51.6371 63.3255 53.2071 63.3971 55.1749C63.5168 58.4702 63.4298 61.773 63.4298 65.5047C65.4571 64.0594 67.202 63.1716 67.702 60.6733C69.4278 52.0515 77.2536 45.7173 85.8763 45.6999C88.7002 45.6942 89.1702 46.2353 88.7578 49.0174C87.7064 56.1103 81.5663 62.7169 74.5751 64.2629C73.8142 64.4312 72.9978 64.7639 72.278 64.6324C68.5139 63.9445 66.4427 66.6846 64.0706 68.6685C62.4564 70.0186 63.3578 72.5793 65.4241 73.1362C74.8252 75.6699 79.8384 82.3724 82.5363 91.2462C82.7947 92.0961 82.6265 92.8966 81.6504 93.0878C80.5587 93.3017 80.2222 92.4287 79.9706 91.5914C78.6839 87.3095 76.638 83.4695 73.329 80.4003C71.3548 78.5692 69.2393 76.9325 66.1586 76.2069C68.851 80.3699 70.4384 84.6151 71.2833 89.1351C71.4371 89.9581 71.464 90.8054 71.5396 91.6424C71.6093 92.413 71.2973 92.971 70.5076 93.0692C69.7141 93.1678 69.2802 92.6628 69.1364 91.9357C68.8684 90.5806 68.6949 89.2048 68.3806 87.8613C67.4533 83.8962 65.9668 80.177 63.3508 76.9908C62.9813 76.5408 62.7164 75.9564 61.9353 75.7531C59.5802 77.7731 58.216 80.5007 57.0762 83.3502C56.0904 85.8149 55.489 88.3907 55.1907 91.0337C55.1097 91.7516 55.0428 92.4936 54.3265 92.9215C53.9377 93.1538 53.5296 93.1906 53.1389 92.9222C52.5687 92.5304 52.461 91.9396 52.5462 91.3203C53.1895 86.6433 54.3 82.1145 56.782 78.0194C57.0814 77.5254 57.6011 77.1217 57.5325 76.2003C54.0111 77.2466 51.3289 79.3689 49.04 82.0139C46.6858 84.7343 45.1227 87.9127 44.0777 91.3483C43.7946 92.2788 43.5479 93.4309 42.2414 93.0337C40.9376 92.6375 41.3584 91.5252 41.6403 90.6018C44.3783 81.6342 49.7724 75.3062 59.1839 72.9789C60.9624 72.5391 61.5686 70.119 60.1361 68.769C58.7386 67.4521 57.181 66.3048 55.689 65.0888C55.126 64.6299 54.4418 64.6873 53.7859 64.7108C44.6047 65.0404 36.738 57.384 35.3863 48.112C35.1331 46.3745 35.6942 45.7818 37.5919 45.7077C46.4502 45.3618 54.4004 51.415 56.5492 60.3765C57.007 62.2855 57.8025 63.6874 59.471 64.7989ZM61.1404 48.5675C62.0752 49.7595 62.6433 48.9556 63.1914 48.1769C67.3142 42.3193 67.2282 34.0401 62.9824 28.2374C62.7115 27.8672 62.5208 27.3684 61.9397 27.3698C56.8983 32.2329 56.4972 41.2493 61.1404 48.5675ZM39.4226 52.6319C39.9593 53.5672 40.4053 54.5705 41.0483 55.4258C43.783 59.0633 47.1933 61.6497 51.9213 61.9831C53.9578 62.1267 54.347 61.6721 53.6606 59.7024C51.5072 53.5234 47.1659 49.7495 40.7571 48.4821C38.2272 47.9818 37.852 48.5728 38.7823 51.044C38.9512 51.4926 39.1389 51.9341 39.4226 52.6319ZM73.1886 61.9232C79.3728 60.592 83.343 56.7346 85.5554 50.9546C86.4726 48.5582 85.999 48.0162 83.4331 48.4857C79.1045 49.2778 75.5953 51.4777 73.0188 55.0446C71.581 57.0349 70.4148 59.1849 70.2608 61.6974C71.2146 62.2201 72.0573 61.9777 73.1886 61.9232Z" fill="#1A9E96"></path>
<path d="M52.0582 97.1713C49.7382 96.922 47.7572 97.4177 45.8314 98.438C41.7223 100.615 37.5911 100.781 33.4582 98.3914C30.8035 96.8562 28.0176 96.599 25.1544 97.8423C24.4345 98.1549 23.7061 98.2616 23.2787 97.4339C22.7943 96.4958 23.4059 95.9578 24.1568 95.5831C27.6969 93.8164 31.1517 94.2152 34.5014 96.1003C36.7887 97.3876 39.1493 97.9997 41.7665 97.3262C42.8315 97.0522 43.7976 96.5824 44.7486 96.0725C48.7863 93.9074 52.8386 93.9058 56.8006 96.1563C60.2747 98.1297 63.6423 98.0499 67.0675 96.1233C71.0807 93.8659 75.1247 93.9435 79.0963 96.1844C82.44 98.0708 85.6889 98.0154 89.0253 96.1721C92.411 94.3015 95.9359 93.7949 99.5653 95.5216C100.328 95.8845 101.241 96.2556 100.761 97.3618C100.309 98.4051 99.4848 98.1754 98.6259 97.826C95.9105 96.7214 93.2219 96.7875 90.6363 98.2222C86.2276 100.669 81.8943 100.714 77.437 98.2211C74.522 96.5906 71.4212 96.6294 68.4655 98.2856C64.179 100.688 59.9112 100.784 55.589 98.407C54.5351 97.8272 53.4199 97.3691 52.0582 97.1713Z" fill="#1A9E96"></path>
</svg>