<svg width="124" height="124" viewBox="0 0 124 124" fill="none" xmlns="http://www.w3.org/2000/svg">
<rect width="124" height="124" rx="62" fill="#E6F0E0"></rect>
<path d="M90.278 48.8115C94.2382 59.9617 89.1545 71.4336 78.6536 75.2907C76.656 76.0244 74.5933 76.354 72.4611 76.261C71.6259 76.2246 70.7975 76.1376 70.7955 75.0764C70.7936 74.028 71.619 73.9215 72.4505 73.856C81.5001 73.1435 87.4148 67.7613 89.0077 58.8052C90.2898 51.596 85.9051 43.1705 79.2487 40.3222C77.6971 39.6583 77.002 38.8138 76.65 37.1153C75.1619 29.9333 68.9829 25.1153 61.7255 25.2264C54.5567 25.3362 48.6173 30.3753 47.2125 37.6717C46.9676 38.9437 46.481 39.6421 45.2773 40.163C39.1389 42.8195 36.0675 47.7309 35.102 54.1977C33.9194 62.1187 38.8589 69.9833 45.4877 72.62C47.4719 73.4092 49.5378 73.7195 51.6428 73.8448C52.5321 73.8978 53.4776 73.9551 53.4456 75.0991C53.4134 76.2482 52.4347 76.234 51.5654 76.262C42.9414 76.54 34.6344 69.7515 32.8332 60.9891C30.8895 51.5336 35.3419 41.7713 43.5188 38.1127C44.6149 37.6223 44.713 36.7241 44.9591 35.8134C46.9046 28.6156 52.9604 23.4051 60.2644 22.6437C67.2452 21.9159 74.6683 25.6373 77.4204 32.1835C78.9766 35.8851 80.9164 38.5883 84.3453 40.6568C87.2723 42.4227 88.9785 45.4766 90.278 48.8115Z" fill="#2C6639"></path>
<path d="M53.9234 65.9545C52.722 64.7636 51.6084 63.6654 50.5023 62.5598C49.9056 61.9634 49.4544 61.2539 50.1482 60.5166C50.8979 59.72 51.6953 60.0924 52.3449 60.7559C55.0323 63.5009 57.7046 66.2607 60.3824 69.015C60.5614 68.946 60.7405 68.877 60.9196 68.808C60.9196 67.8945 60.9219 66.9809 60.9192 66.0674C60.9084 62.4632 60.8767 58.8589 60.8976 55.2549C60.903 54.3326 60.7554 53.0522 62.2026 53.1842C63.5137 53.3038 63.3401 54.5233 63.3428 55.4724C63.3532 59.202 63.339 62.9317 63.3582 66.6613C63.3612 67.2385 63.1809 67.8517 63.6513 68.5909C65.0723 67.2563 66.4635 65.9739 67.8264 64.6621C68.9531 63.5777 70.0316 62.4432 71.1598 61.3604C71.9134 60.637 72.757 59.44 73.8374 60.5422C74.8437 61.5686 73.6762 62.3693 72.9861 63.074C71.5552 64.5351 70.2472 66.1768 68.6141 67.3679C64.2161 70.5757 62.7755 74.6906 63.2393 80.093C63.7161 85.6466 63.3909 91.2734 63.3189 96.867C63.2997 98.3661 63.7852 98.8387 65.2761 98.8276C72.9755 98.7701 80.6757 98.8021 88.3756 98.8043C88.8567 98.8045 89.3395 98.7934 89.8183 98.8291C90.6132 98.8884 91.2809 99.2247 91.3043 100.095C91.328 100.978 90.6661 101.329 89.8728 101.404C89.3953 101.449 88.9114 101.432 88.4304 101.432C70.9853 101.439 53.5402 101.445 36.0951 101.446C35.4949 101.446 34.8893 101.442 34.2959 101.366C33.5815 101.273 32.9994 100.909 32.9903 100.118C32.9813 99.3224 33.5593 98.9551 34.2748 98.8589C34.8079 98.7872 35.3545 98.8029 35.8951 98.8026C43.4747 98.7986 51.055 98.7469 58.6335 98.8368C60.3373 98.857 60.8978 98.1963 60.8946 96.6598C60.8792 89.2645 60.8762 81.8691 60.8686 74.4737C60.8672 73.1379 60.366 72.1174 59.3199 71.1973C57.4708 69.5712 55.7746 67.7713 53.9234 65.9545Z" fill="#2C6639"></path>
</svg>