<svg width="50" height="50" viewBox="0 0 50 50" fill="none" xmlns="http://www.w3.org/2000/svg">
<circle cx="25.3677" cy="24.7849" r="24.1607" fill="#F9F8F8"></circle>
<path d="M22.7301 24.6396C22.9343 25.2957 23.1348 25.8789 23.3777 26.5902C23.4917 26.3732 23.5543 26.3051 23.5579 26.2352C23.6536 23.3997 23.5745 20.5446 23.8799 17.7311C24.2128 14.6694 25.313 11.7946 26.9539 9.16269C27.2262 8.72485 27.6199 8.29008 28.2306 8.73098C28.5949 8.99405 28.7089 9.2792 28.4127 9.73421C27.2556 11.5193 26.4977 13.4785 25.9439 15.5303C25.1621 18.4265 25.0002 21.3663 25.1879 24.3416C25.2486 25.2847 25.3111 26.2297 25.5576 27.3095C25.7158 27.0998 25.9568 26.914 26.0194 26.681C27.0441 22.8306 28.8304 19.431 31.8584 16.7665C32.4416 16.2533 33.113 15.8455 33.7201 15.3598C34.1359 15.025 34.502 15.0121 34.8166 15.4426C35.1367 15.8804 35.0594 16.2772 34.6252 16.6286C33.7164 17.3675 32.7469 18.0518 31.9393 18.8919C29.6858 21.2363 28.352 24.0736 27.6861 27.2985C28.6611 27.4604 29.3436 27.3445 30.0666 26.4952C31.0214 25.3755 32.2834 24.5078 33.4626 23.5953C33.8655 23.2826 34.4689 23.0986 34.7982 23.7388C35.1035 24.3293 34.6381 24.6378 34.1874 24.8732C33.0891 25.4509 32.1546 26.2027 31.3727 27.3795C33.7955 27.3795 36.0749 27.3795 38.356 27.3813C38.6301 27.3813 38.9778 27.2967 39.1655 27.4291C39.4488 27.6315 39.8001 27.9976 39.7873 28.2784C39.7762 28.5433 39.3513 28.8193 39.0643 29.0265C38.9429 29.1148 38.7074 29.0431 38.5234 29.0431C29.4172 29.0431 20.311 29.0394 11.2066 29.0486C10.6105 29.0486 10.0402 29.0394 10.0163 28.2895C9.9924 27.4953 10.5903 27.3923 11.2213 27.3923C13.5208 27.3942 15.8204 27.3942 18.2266 27.3942C17.3547 26.1972 16.33 25.3221 15.0809 24.7205C14.5566 24.4704 14.2824 24.1356 14.5731 23.5953C14.8619 23.0581 15.2722 23.117 15.8149 23.358C17.4466 24.0859 18.6718 25.2921 19.7664 26.6307C20.2687 27.2445 20.7617 27.5444 21.7201 27.2611C21.3982 26.2149 21.1535 25.1339 20.7414 24.122C19.6156 21.3675 18.0556 18.922 15.5132 17.2265C15.0477 16.9156 14.746 16.3882 15.0864 15.9264C15.469 15.4095 16.0356 15.6064 16.5323 15.9614C19.0085 17.7232 20.7157 20.0914 21.9758 22.8147C22.2408 23.3911 22.4762 23.981 22.7301 24.6396Z" fill="#BEA001"></path>
<path d="M32.4967 48.742C28.6298 49.9629 24.7334 50.2463 20.8407 49.5748C15.0826 48.5838 10.2131 45.8385 6.23209 41.5466C5.61949 40.8886 5.02161 40.2153 4.17169 39.5628C4.17169 40.3533 4.18273 41.1443 4.16802 41.9347C4.15882 42.448 4.22872 43.0287 3.42664 43.0177C2.60799 43.0066 2.72206 42.4032 2.71838 41.9016C2.71102 40.4618 2.71654 39.0201 2.73494 37.5803C2.74597 36.7089 3.08446 36.4385 3.94725 36.5562C5.36746 36.7494 6.79687 36.9058 8.20603 37.1596C8.48198 37.2093 8.6917 37.6324 8.93085 37.882C8.62547 38.1064 8.31641 38.5204 8.01287 38.5185C7.19607 38.5112 6.3811 38.3272 5.43553 38.1947C6.98083 40.4066 8.79288 42.1665 10.8238 43.7039C13.3644 45.6287 16.2103 46.9692 19.2917 47.7088C22.0328 48.3649 24.8125 48.547 27.6584 48.2202C33.2951 47.5714 38.0064 45.1345 41.9414 41.1633C44.8904 38.188 46.7852 34.6081 47.8099 30.5148C48.6377 27.2108 48.6432 23.9338 48.0858 20.6225C47.9644 19.9075 47.7473 19.1992 47.5027 18.5136C47.3021 17.9507 47.5652 17.6275 48.0177 17.5797C48.2827 17.5539 48.7591 17.8372 48.8456 18.0838C49.9696 21.3087 50.2327 24.6317 49.804 28.0093C49.3331 31.7198 48.1244 35.1747 46.1174 38.3376C43.1611 42.9913 39.0752 46.2573 33.915 48.1914C33.4643 48.3594 33.0173 48.5415 32.4967 48.742Z" fill="#BEA001"></path>
<path d="M19.3579 0.697265C22.1026 0.0484845 24.783 -0.174115 27.5296 0.142303C31.0396 0.547025 34.3399 1.53553 37.4213 3.25989C40.0962 4.75736 42.4049 6.70125 44.4267 8.99468C44.6217 9.21666 44.8222 9.43496 45.1957 9.85072C45.1957 8.79599 45.2012 7.96018 45.192 7.12498C45.1883 6.5688 45.3704 6.11441 45.9757 6.08682C46.6655 6.05554 46.6747 6.57371 46.6674 7.09678C46.649 8.59793 46.6324 10.1003 46.6637 11.6008C46.6766 12.2827 46.4227 12.5685 45.7475 12.4974C44.2593 12.341 42.7636 12.238 41.2901 12.0037C40.9571 11.951 40.694 11.4524 40.3997 11.1593C40.7437 10.9839 41.084 10.6718 41.4336 10.6595C42.2761 10.6301 43.1205 10.7411 44.0606 10.8024C40.7695 6.81163 36.8142 3.98226 31.873 2.52158C28.1937 1.43312 24.4794 1.13142 20.7413 1.8777C15.0549 3.01276 10.2663 5.74831 6.61097 10.3247C4.14585 13.408 2.56376 16.9217 1.83894 20.7721C1.40478 23.0741 1.11044 25.4331 1.6844 27.7903C1.97139 28.9652 2.23446 30.153 2.40555 31.3482C2.44786 31.6517 2.17191 32.1662 1.90148 32.3024C1.54827 32.4808 1.13435 32.4091 0.979822 31.7799C0.168539 28.498 -0.287696 25.2393 0.201649 21.8158C1.16562 15.0618 4.26726 9.59501 9.53232 5.32642C12.2752 3.10229 15.4541 1.71214 18.8244 0.731609C18.966 0.691137 19.1279 0.718728 19.3579 0.697265Z" fill="#BEA001"></path>
<path d="M29.6988 33.541C28.8802 33.5355 28.148 33.5484 27.4158 33.5208C26.8989 33.5024 26.45 33.3571 26.4059 32.7157C26.3581 32.0411 26.8014 31.7229 27.3368 31.6953C28.5215 31.6309 29.7209 31.6106 30.8983 31.7284C31.2441 31.7633 31.7335 32.2913 31.8016 32.6586C31.8935 33.1535 31.4649 33.5245 30.8854 33.5355C30.5193 33.5447 30.1532 33.5392 29.6988 33.541Z" fill="#BEA001"></path>
<path d="M38.9236 31.9522C39.4515 32.8604 39.2124 33.4803 38.3018 33.5337C37.1759 33.5999 36.0427 33.5687 34.9131 33.5447C34.3888 33.5337 34.0761 33.2485 34.0448 32.6881C34.0154 32.1343 34.3392 31.7431 34.7991 31.7394C36.1549 31.7314 37.5107 31.8418 38.9236 31.9522Z" fill="#BEA001"></path>
<path d="M21.9775 33.4914C21.0945 33.4877 20.2998 33.4748 19.5051 33.4858C18.9476 33.4932 18.6607 33.2522 18.6239 32.6844C18.5889 32.1251 18.8869 31.7799 19.38 31.7615C20.6291 31.7136 21.8819 31.7118 23.131 31.7707C23.6406 31.7964 24.0085 32.2048 23.8043 32.7248C23.681 33.0376 23.3002 33.308 22.9709 33.4638C22.7208 33.5815 22.3712 33.4895 21.9775 33.4914Z" fill="#BEA001"></path>
<path d="M11.2792 31.943C12.7619 31.8675 14.1858 31.7921 15.606 31.8455C15.8304 31.8528 16.1892 32.4452 16.1892 32.7684C16.191 33.0057 15.7237 33.4374 15.4459 33.4539C14.2299 33.5294 13.0029 33.5257 11.7832 33.4705C10.9296 33.4325 10.7309 32.8419 11.2792 31.943Z" fill="#BEA001"></path>
<path d="M23.3572 37.8691C22.6398 37.9225 22.2718 37.6833 22.2939 36.9977C22.3141 36.3379 22.7777 36.2128 23.2928 36.2073C24.4555 36.1944 25.6181 36.2018 26.7808 36.2202C27.3456 36.2312 27.7374 36.5274 27.7282 37.1063C27.7209 37.7005 27.3364 37.9059 26.744 37.8856C25.6439 37.8489 24.5419 37.8709 23.3572 37.8691Z" fill="#BEA001"></path>
<path d="M32.3183 37.8672C31.8934 37.8654 31.5089 37.9703 31.2384 37.8378C30.9257 37.6851 30.5559 37.3485 30.51 37.0455C30.475 36.8082 30.876 36.2753 31.1078 36.2625C32.4121 36.1852 33.7275 36.1686 35.03 36.2661C35.2985 36.2864 35.6867 36.853 35.7309 37.2037C35.7879 37.6637 35.4034 37.9077 34.8736 37.8801C34.0531 37.8396 33.2289 37.8672 32.3183 37.8672Z" fill="#BEA001"></path>
<path d="M14.3801 36.5249C14.8731 36.3796 15.3091 36.2324 15.7506 36.2159C16.6981 36.1791 17.6473 36.2067 18.5966 36.2122C19.165 36.214 19.555 36.5047 19.5642 37.0633C19.5716 37.6465 19.2018 37.8961 18.5929 37.8759C17.5535 37.8409 16.5104 37.8703 15.471 37.8685C14.3231 37.8673 14.209 37.7367 14.3801 36.5249Z" fill="#BEA001"></path>
</svg>