<svg width="50" height="50" viewBox="0 0 50 50" fill="none" xmlns="http://www.w3.org/2000/svg">
<path d="M18.7184 27.9958C19.7595 27.5898 20.7391 27.2204 21.9266 26.7728C22.0133 24.7111 22.5754 22.441 23.9328 20.3661C21.4765 20.7246 18.6497 24.0376 18.0208 27.6609C17.587 27.4355 17.1984 27.2343 16.7501 27.0017C17.9756 22.6392 20.4192 19.5449 25.0841 18.4394C24.4353 17.6978 23.9509 16.8778 23.237 16.4133C22.6712 16.0452 21.8254 16.0988 21.0988 15.9898C18.4383 15.5897 16.864 13.9149 15.9585 11.5291C15.7 10.8483 15.6729 10.0771 15.5645 9.3433C15.4723 8.71492 15.8555 8.49923 16.4031 8.42573C18.9353 8.08714 22.1652 9.91203 23.1647 12.2755C23.349 12.7075 23.5027 13.1702 23.5605 13.6323C23.7123 14.8131 24.2292 15.7584 25.2576 16.5133C25.2576 14.8637 25.3498 13.2557 25.2088 11.6676C25.1582 11.0983 24.5726 10.5609 24.1877 10.0392C21.8507 6.85569 22.6243 3.21435 24.963 0.579744C25.6408 -0.184793 26.0439 -0.190819 26.6801 0.547811C27.8947 1.95639 28.7134 3.58186 28.8978 5.42844C29.0659 7.125 28.4477 8.7119 27.4555 10.0271C26.6259 11.1266 26.2987 12.2219 26.4054 13.5516C26.4813 14.4782 26.4198 15.415 26.4198 16.629C27.1175 15.7193 27.976 15.3481 28.0628 14.157C28.2959 10.9712 31.9288 8.08594 35.1189 8.40766C35.7099 8.4673 36.2305 8.66792 36.1365 9.38728C35.8057 11.9207 34.8803 14.1564 32.462 15.3536C31.5619 15.7988 30.4576 15.8253 29.4509 16.0651C29.0803 16.1536 28.6375 16.2115 28.3809 16.4489C27.7483 17.032 27.206 17.7116 26.5499 18.4394C30.8787 19.4347 33.3422 22.2055 34.6544 26.1631C34.9508 27.0566 34.2423 27.1042 33.6676 27.4072C32.7385 24.0828 31.0576 21.4403 27.6543 20.2667C28.8472 22.3242 29.5123 24.5208 29.7003 26.7451C31.2113 27.3361 32.6663 27.9067 34.1212 28.4754C33.5826 29.5827 33.0512 29.8424 31.9867 29.1405C30.6184 28.2386 29.3225 28.3103 27.9561 29.011C26.3313 29.8448 24.7245 29.7008 23.1665 28.8622C22.0621 28.2669 21.0175 28.2971 19.9348 28.9007C19.5263 29.1279 19.0636 29.2761 18.61 29.3966C17.6412 29.6532 17.4641 29.5544 16.8821 28.5435C17.4858 28.37 18.0714 28.2013 18.7184 27.9958ZM25.1131 20.7397C24.0069 22.3844 23.5551 24.2605 23.2351 26.1721C23.1701 26.5637 23.19 27.1825 23.4303 27.3771C24.86 28.5356 26.3891 28.5441 27.9507 27.4946C28.1152 27.3837 28.2652 27.1186 28.2688 26.9216C28.323 24.2677 27.3687 21.9597 25.7854 19.7871C25.5685 20.1149 25.3896 20.3854 25.1131 20.7397ZM24.9829 2.72815C23.5659 5.28022 23.9202 7.84133 25.7981 10.1458C28.1983 7.33887 28.0736 4.25603 25.7981 1.53707C25.5432 1.89916 25.2938 2.25401 24.9829 2.72815ZM22.1597 14.8818C22.7706 14.2257 22.3495 13.6166 22.1019 12.9756C21.3862 11.1338 18.8955 9.34691 16.7194 9.76984C17.3195 12.8888 19.2715 14.6926 22.1597 14.8818ZM34.5098 11.1067C34.6038 10.6609 34.696 10.2151 34.7972 9.72707C31.3956 10.0331 29.0388 12.3123 29.3822 14.8264C31.5023 15.0144 33.6224 13.5076 34.5098 11.1067Z" fill="#1A9E96"></path>
<path d="M20.2666 45.1148C20.2666 46.4608 20.2666 47.7157 20.2666 49.0116C17.5356 49.0116 14.8968 49.0116 12.1712 49.0116C12.1495 48.7785 12.1043 48.523 12.1043 48.267C12.0989 47.003 12.0049 45.7287 12.1332 44.478C12.3357 42.5103 11.5097 41.0265 10.3674 39.5281C8.94495 37.6623 7.58758 35.7175 6.47241 33.6606C5.89042 32.5864 5.82715 31.2074 5.63557 29.95C5.2289 27.272 5.547 24.6218 6.14706 22.0052C6.46517 20.6195 6.8375 19.2435 7.26405 17.8873C7.36165 17.5777 7.79363 17.1541 8.05209 17.1686C8.39911 17.1873 9.32993 17.6042 9.38235 17.8873C9.59562 19.079 10.0705 20.3553 10.0922 21.5663C10.112 22.8224 9.68248 24.3455 9.61018 25.6028C9.5668 26.3481 9.09315 26.7027 9.05701 27.4485C8.98652 28.8836 9.69865 30.0765 10.315 31.2809C10.9331 32.4852 11.6272 33.6516 12.3158 34.8174C12.5435 35.203 12.3321 35.1831 12.9539 34.8174C13.5106 34.4896 13.3877 34.6628 13.1346 34.188C12.1749 32.3945 11.2331 30.9118 10.315 29.0972C10.174 28.8182 10.4921 28.0992 10.5409 27.801C10.5897 27.4931 10.4812 26.8602 10.7252 26.7475C10.9729 26.633 11.7808 26.9334 11.9651 27.1298C12.6411 27.8504 13.2972 28.6095 13.8358 29.4355C14.8172 30.9399 16.5964 32.0011 17.9845 33.1337C20.4914 35.1779 21.2379 38.1336 20.786 41.3273C20.6107 42.5678 20.2829 43.7611 20.2666 45.1148Z" fill="#F9F8F8"></path>
<path d="M42.0149 16.9274C42.5156 16.0413 43.6902 16.682 44.0247 17.6501C44.4874 18.9924 44.9024 20.3626 45.1897 21.7507C45.4373 22.9459 45.606 24.1857 45.5843 25.402C45.5409 27.822 45.6418 30.3082 45.1087 32.6354C44.7346 34.2692 43.4459 35.7103 42.4934 37.1911C41.4777 38.7696 40.35 40.2773 39.3343 41.8551C39.114 42.1997 39.0955 42.7138 39.0901 43.151C39.0648 45.0157 39.0794 46.8817 39.0794 48.8132H31.0276C31.0276 47.6872 31.0578 46.5809 31.0198 45.4772C30.9638 43.8271 30.8588 42.1788 30.7757 40.53C30.6383 37.8146 31.2718 35.3458 33.428 33.5505C35.4267 31.886 36.9758 29.8753 38.427 27.7585C38.6114 27.4892 38.8154 27.1559 39.0901 27.0426C39.4859 26.8782 40.0576 26.6988 40.3684 26.8669C40.8344 27.1188 41.0546 27.6791 40.7366 28.2741C39.739 30.1417 38.7301 32.0032 37.7776 33.8942C37.6096 34.2298 37.6951 34.6941 37.6643 35.0983C38.0039 35.0873 38.3135 34.622 38.6819 34.5495C39.8206 32.2782 40.5725 30.5266 41.5882 28.2741C41.8249 27.7481 41.9912 27.0151 41.9749 26.3669C41.917 24.0227 40.7258 21.7111 40.7366 19.3669C40.7388 18.7438 41.7077 17.4689 42.0149 16.9274ZM38.3977 45.0456C38.4491 45.2277 38.4881 45.4106 38.5061 45.5915C38.6435 46.9813 37.8426 47.6033 36.7112 47.9274C35.9413 48.1479 35.0067 48.0836 34.2259 47.8649C33.72 47.724 33.1457 47.1471 32.972 46.6393C32.8066 46.151 32.6736 45.6486 32.5628 45.1403C32.6737 45.6491 32.8064 46.1515 32.972 46.6403C33.1455 47.1482 33.7208 47.7259 34.2268 47.8669C35.0074 48.0854 35.9415 48.1491 36.7112 47.9294C37.8427 47.6052 38.6435 46.9833 38.5061 45.5934C38.488 45.4119 38.4494 45.2283 38.3977 45.0456ZM32.3929 44.2594C32.4149 44.3882 32.4378 44.5168 32.4622 44.6452C32.4378 44.5168 32.4149 44.3882 32.3929 44.2594ZM37.8548 43.8571C37.8917 43.9144 37.9272 43.9739 37.9622 44.0339C37.9275 43.9744 37.8923 43.9158 37.8557 43.8591C37.8227 43.8076 37.7923 43.7564 37.764 43.7057C37.792 43.7558 37.8221 43.8063 37.8548 43.8571ZM44.1477 30.401C44.3703 31.0058 44.3862 31.694 44.2249 32.3092C43.8146 33.866 43.0349 35.0538 41.5872 35.8659C41.1951 36.0865 41.1044 36.8517 40.8821 37.3698C40.6454 37.924 40.5104 38.5508 40.1634 39.0231C39.4928 39.9376 38.6866 40.7527 37.969 41.6335C37.5865 42.1007 37.4317 42.5752 37.5276 43.0817C37.4324 42.5759 37.588 42.1021 37.97 41.6354C38.6874 40.7548 39.4929 39.9388 40.1634 39.0251C40.5104 38.5527 40.6463 37.926 40.8831 37.3717C41.1054 36.8536 41.196 36.0883 41.5882 35.8678C43.0358 35.0557 43.8146 33.8679 44.2249 32.3112C44.3864 31.6953 44.3709 31.0063 44.1477 30.401ZM32.1214 41.9919C32.133 42.1839 32.1451 42.3757 32.1624 42.5671C32.145 42.3758 32.133 42.1839 32.1214 41.9919ZM32.0003 39.4655C32.0052 39.5581 32.0201 39.6546 32.0247 39.7438C32.0202 39.6536 32.0052 39.5559 32.0003 39.4626V39.4655ZM40.3265 35.4255C40.0713 35.974 39.6195 36.3738 38.7845 36.4411C38.8041 36.4415 38.8241 36.4428 38.844 36.443C39.6292 36.38 40.0723 35.978 40.3265 35.4255Z" fill="#F9F8F8"></path>
<path d="M31.1237 47.2201C31.8521 47.5014 32.5335 47.7189 33.1607 48.0407C34.8415 48.9004 36.4285 48.4546 37.9449 47.678C39.4035 46.9315 40.75 47.1315 42.129 47.8298C42.4562 47.9949 42.8701 47.984 43.2008 48.1437C43.5009 48.2895 43.7412 48.5576 44.0087 48.7715C43.7702 49.0372 43.5153 49.5402 43.2966 49.5258C42.6062 49.4788 41.9067 49.295 41.2488 49.0576C40.3036 48.716 39.389 48.6395 38.4781 49.1034C37.2002 49.7553 35.8591 50.1734 34.4258 49.9174C33.5655 49.7637 32.707 49.4769 31.9099 49.1112C30.8761 48.6359 29.9127 48.6196 28.9204 49.1528C26.6901 50.3499 24.4561 50.1933 22.2294 49.1432C21.1919 48.654 20.1762 48.6473 19.1387 49.1673C17.0692 50.2053 14.9799 50.3276 12.8833 49.2227C11.5765 48.5335 10.3095 48.7666 9.02804 49.3366C8.63945 49.5089 8.15868 49.5649 7.73574 49.5233C7.54235 49.5041 7.26761 49.1311 7.24412 48.8968C7.22062 48.6696 7.41583 48.2829 7.61464 48.1967C8.33942 47.8828 9.10757 47.6731 9.85584 47.4111C11.1987 46.9411 12.4621 47.2448 13.6568 47.8629C15.1769 48.6498 16.6354 48.7172 18.1663 47.8647C19.8436 46.9297 21.5697 46.9086 23.2795 47.8461C24.8393 48.7016 26.3485 48.6443 27.9752 47.8696C28.897 47.4298 30.0194 47.4117 31.1237 47.2201Z" fill="#1A9E96"></path>
<path d="M25.0124 2.66854C25.2925 2.25404 25.542 1.89919 25.7968 1.5365C28.0723 4.25485 28.197 7.3383 25.7968 10.1452C23.9189 7.84077 23.5646 5.28025 25.0124 2.66854Z" fill="#F9F8F8"></path>
<path d="M22.0795 14.8836C19.2708 14.6932 17.3188 12.8894 16.7188 9.76983C18.8949 9.3469 21.3855 11.1338 22.1012 12.9756C22.3489 13.6166 22.77 14.2257 22.0795 14.8836Z" fill="#F9F8F8"></path>
<path d="M34.476 11.1694C33.6211 13.5082 31.5009 15.0143 29.3808 14.8264C29.0374 12.3123 31.3943 10.0337 34.7959 9.72705C34.6947 10.2151 34.6025 10.6609 34.476 11.1694Z" fill="#F9F8F8"></path>
<path d="M32.4673 32.4795C34.4265 30.8998 35.8237 28.9207 37.2678 26.9759C38.0323 25.9487 39.0174 25.2739 40.6151 25.7498C40.4741 23.8858 40.3621 22.1019 40.1922 20.324C40.0819 19.1546 40.2301 18.0641 40.8627 17.058C41.3815 16.232 42.1297 15.7645 43.0985 15.8048C44.051 15.844 44.6511 16.4224 44.9999 17.2972C45.8982 19.551 46.5344 21.8778 46.6465 24.3009C46.7459 26.4511 46.67 28.6098 46.6808 30.7642C46.6917 33.0886 45.6542 35.0135 44.3529 36.8269C43.2503 38.3638 42.1026 39.8676 40.982 41.393C40.4579 42.1082 40.1199 42.8829 40.2012 43.8095C40.25 44.3716 40.2103 44.9416 40.2103 45.4778C39.0246 45.7561 38.9161 45.6139 38.8077 44.5964C38.6035 42.7142 39.2469 41.2231 40.4127 39.7501C41.9273 37.8342 43.3064 35.7876 44.5228 33.6705C45.0541 32.7445 45.1517 31.5125 45.2403 30.4027C45.3795 28.6748 45.4572 26.9265 45.356 25.1986C45.2132 22.723 44.7613 20.283 43.7654 17.9864C43.6281 17.6701 43.2594 17.2357 43.0063 17.2417C42.6665 17.2496 42.2183 17.5598 42.0303 17.8707C41.7809 18.2816 41.62 18.8202 41.6291 19.301C41.6526 20.712 41.8026 22.1206 41.8586 23.5309C41.9201 25.051 42.0827 26.5897 41.9128 28.0874C41.7936 29.1387 41.264 30.1714 40.7814 31.1462C40.1542 32.418 39.4096 33.6338 38.6812 34.8526C38.4625 35.2165 38.1932 35.6973 37.6311 35.399C37.0618 35.0954 37.1955 34.6243 37.4467 34.1622C38.4047 32.3969 39.3662 30.6323 40.3169 28.8628C40.4127 28.6839 40.5302 28.4555 40.494 28.2802C40.4109 27.8814 40.3133 27.238 40.0856 27.1723C39.6897 27.059 39.0174 27.1542 38.7643 27.435C37.8733 28.4206 37.1521 29.5581 36.2882 30.5702C35.52 31.4709 34.723 32.3782 33.8048 33.1157C31.2816 35.1406 30.3852 37.7469 30.6834 40.89C30.8081 42.2052 30.7954 43.533 30.8424 44.8554C30.8623 45.3627 30.6924 45.8405 30.1339 45.7447C29.8574 45.6971 29.4652 45.2139 29.4507 44.9109C29.3477 42.9004 29.2899 40.8851 29.3025 38.8717C29.3188 36.2714 30.4321 34.1742 32.4673 32.4795Z" fill="#1A9E96"></path>
<path d="M8.98088 17.7375C8.0356 16.8736 7.68497 16.9025 7.26745 18.0153C5.70585 22.1681 5.16904 26.4203 5.6697 30.8738C6.01672 33.9717 7.9615 36.0611 9.58275 38.3987C10.3907 39.5633 11.4137 40.6284 11.9721 41.8997C12.3897 42.8504 12.2595 44.0589 12.2722 45.1536C12.274 45.3416 11.7715 45.6808 11.5022 45.6802C11.2926 45.6796 11.0829 45.2614 10.8769 45.0259C10.8624 45.009 10.8696 44.9662 10.875 44.9373C11.2944 42.8196 10.0997 41.3665 8.91943 39.8247C7.50241 37.9764 6.14142 36.0557 5.02444 34.0193C4.45149 32.9734 4.4063 31.6161 4.21472 30.3852C3.69238 27.0343 4.184 23.7532 5.03348 20.5143C5.32628 19.4022 5.6733 18.2996 6.08178 17.2254C6.45411 16.2494 7.23129 15.7319 8.29405 15.7976C9.29898 15.8596 10.1394 16.694 10.5316 17.6893C11.1299 19.21 10.6943 20.7173 10.631 22.2356C10.5841 23.373 10.622 24.5135 10.622 25.7046C12.0481 25.3479 13.1018 26.0233 13.9224 27.1511C15.5454 29.3815 17.3926 31.3805 19.4295 33.2596C21.4954 35.1628 22.0449 37.798 21.9039 40.5646C21.8316 42.0045 21.7557 43.4456 21.7358 44.8867C21.7268 45.4289 21.5442 45.7946 21.0165 45.8055C20.4381 45.8175 20.2266 45.4464 20.2628 44.8596C20.3477 43.5107 20.3332 42.1545 20.4471 40.8086C20.7273 37.5245 19.6826 34.8471 16.9534 32.9078C15.1695 31.6408 14.1953 29.6894 12.8253 28.0729C12.556 27.756 12.2993 27.4012 11.9631 27.1758C11.195 26.6643 10.4142 27.062 10.5479 27.9603C10.6744 28.8164 11.0124 29.6701 11.4046 30.4515C12.0661 31.7715 12.8722 33.0198 13.55 34.3326C13.6693 34.5652 13.5663 35.1465 13.3892 35.2423C13.1542 35.3695 12.5469 35.2893 12.4439 35.1056C11.2926 33.0415 10.1033 30.9859 9.15619 28.826C8.81459 28.0506 9.06402 27.0011 9.10017 26.0787C9.16885 24.34 9.26645 22.6019 9.37128 20.865C9.43454 19.8173 9.58636 18.7665 8.98088 17.7375Z" fill="#1A9E96"></path>
</svg>