<svg width="50" height="50" viewBox="0 0 50 50" fill="none" xmlns="http://www.w3.org/2000/svg">
<path d="M18.5664 10.5532L24.9727 1.86566L29.8789 6.74066L33.5039 13.3032L33.1602 16.7407L29.4102 22.3344L24.9727 23.0219L20.9727 22.3344L18.5664 19.3969L17.3477 15.9594L18.5664 10.5532Z" fill="#F9F8F8"></path>
<path d="M13.5735 49.6638C10.281 49.6925 10.7948 49.9181 10.7591 47.0225C10.7423 45.5244 10.7198 44.0244 10.7798 42.5288C10.8154 41.6319 10.5023 40.9288 9.99414 40.2269C8.49227 38.1494 7.00914 36.0569 5.55602 33.9444C4.64289 32.6194 4.21539 31.1275 4.17977 29.5113C4.14039 27.7069 3.94915 25.9 4.0129 24.1006C4.11602 21.1819 4.73477 18.3388 5.69664 15.5788C6.19727 14.145 7.02976 13.5044 8.23726 13.5644C9.20101 13.6119 10.3091 14.4706 10.5454 15.6556C10.7835 16.8525 10.8416 18.1025 10.8248 19.3275C10.8023 20.8169 10.6185 22.3038 10.4985 23.8819C12.6941 23.3494 13.7198 24.7913 14.6704 26.1719C16.0148 28.1256 17.5635 29.8525 19.3316 31.4419C21.8573 33.7119 22.5885 36.645 22.2848 40.005C22.0579 42.5138 22.2154 45.0569 22.2041 47.5844C22.1929 49.88 22.4085 49.5956 20.2241 49.6263C18.0379 49.6569 15.8516 49.6519 13.5735 49.6638ZM20.6948 44.0238C20.7116 42.7138 20.5935 41.3844 20.7754 40.0969C21.2441 36.7838 20.3141 34.0456 17.7135 31.925C16.2735 30.75 15.0416 29.4125 14.0235 27.8519C13.4648 26.995 12.7841 26.2069 12.0829 25.46C11.8916 25.2569 11.3591 25.1719 11.1023 25.2906C10.8491 25.4075 10.656 25.8369 10.6054 26.1563C10.5548 26.4656 10.6504 26.8425 10.7966 27.1325C11.7491 29.015 12.7204 30.8894 13.716 32.7494C13.9785 33.2413 14.1435 33.67 13.566 34.01C12.921 34.3894 12.6829 33.8344 12.4466 33.435C11.7323 32.225 11.0123 31.0156 10.371 29.7663C9.73165 28.5169 8.99289 27.2794 9.06601 25.7906C9.10351 25.0169 9.16164 24.245 9.20664 23.4713C9.28164 22.1669 9.42415 20.8606 9.40352 19.5575C9.38102 18.3013 9.2479 17.0375 9.02665 15.8013C8.97227 15.5075 8.38352 15.1463 8.02352 15.1263C7.75539 15.1119 7.30726 15.5513 7.20601 15.8719C6.76351 17.2781 6.37726 18.7056 6.04726 20.1438C5.42476 22.8588 5.09476 25.6075 5.51664 28.3856C5.71539 29.69 5.78102 31.1206 6.38477 32.235C7.54165 34.3688 8.94976 36.3863 10.4254 38.3219C11.6104 39.8763 12.4673 41.4156 12.2573 43.4569C12.1241 44.7544 12.2216 46.0763 12.2273 47.3875C12.2273 47.6525 12.2741 47.9175 12.2966 48.16C15.1241 48.16 17.8616 48.16 20.6948 48.16C20.6948 46.8156 20.6948 45.5131 20.6948 44.0238Z" fill="#066653"></path>
<path d="M41.0458 39.1644C39.5533 40.6713 39.2852 42.4582 39.424 44.4175C39.5271 45.8463 39.4108 47.2894 39.4615 48.7238C39.4858 49.42 39.2271 49.67 38.5633 49.6669C35.3477 49.6525 32.1302 49.6513 28.9127 49.6494C28.3821 49.6494 28.1421 49.4532 28.159 48.8725C28.1983 47.4375 28.2077 46 28.174 44.565C28.1383 43.0719 28.1102 41.5732 27.9546 40.0894C27.5383 36.1094 28.834 32.9575 31.969 30.3725C33.5121 29.1 34.5977 27.28 35.9308 25.7425C36.4633 25.1282 37.0408 24.5063 37.7196 24.0782C38.2127 23.7663 38.9046 23.7675 39.6096 23.605C39.6096 22.8782 39.6321 21.9232 39.6058 20.9688C39.5665 19.5075 39.4146 18.0444 39.4596 16.5869C39.5027 15.1394 40.7383 13.3838 42.3396 13.5519C43.414 13.665 43.9615 14.3263 44.3177 15.2138C45.8758 19.1063 46.2415 23.1719 46.2752 27.3338C46.3071 31.3457 44.6515 34.5813 42.2608 37.5869C41.8615 38.0888 41.4808 38.6057 41.0458 39.1644ZM37.5377 33.8775C37.1852 33.8894 36.8308 33.9019 36.4783 33.9138C36.5102 33.4938 36.4221 33.0132 36.5965 32.665C37.5846 30.7038 38.6308 28.7719 39.6658 26.8344C39.9958 26.2169 39.7671 25.6357 39.2833 25.3744C38.9608 25.2 38.3683 25.3869 37.9577 25.5575C37.6727 25.6757 37.4608 26.02 37.2696 26.2994C35.764 28.4957 34.1571 30.5819 32.0833 32.3088C29.8465 34.1713 29.1902 36.7319 29.3327 39.5488C29.419 41.2594 29.5277 42.9694 29.5858 44.6813C29.6252 45.8263 29.5933 46.9738 29.5933 48.1419C32.4546 48.1419 35.1827 48.1419 37.9465 48.1419C37.9465 46.1375 37.9315 44.2025 37.9577 42.2682C37.9633 41.8144 37.9821 41.2807 38.2108 40.9232C39.2646 39.2857 40.4346 37.7232 41.4883 36.0857C42.4765 34.5494 43.8133 33.0544 44.2015 31.3594C44.7546 28.945 44.6496 26.3657 44.6946 23.855C44.7171 22.5932 44.5427 21.3063 44.2858 20.0669C43.9877 18.6269 43.5565 17.2063 43.0765 15.8138C42.7296 14.8094 41.8427 14.7188 41.3233 15.6382C41.0046 16.1994 40.8171 16.9138 40.8152 17.56C40.804 19.9919 40.8902 22.4244 40.9502 24.8563C40.9671 25.5288 41.2558 26.3088 41.0102 26.8544C39.9565 29.1907 38.749 31.4582 37.5377 33.8775Z" fill="#066653"></path>
<path d="M32.2893 20.4875C31.1362 21.795 29.8087 22.6975 28.1662 23.1481C27.6525 23.2888 27.2625 23.2569 27.105 22.7956C26.9587 22.3694 26.9568 21.9688 27.6487 21.7669C29.7187 21.1638 31.3125 19.955 32.0906 17.8394C32.6287 16.3775 32.6362 14.86 32.205 13.4413C30.9431 9.3044 28.2712 6.05502 25.2975 3.0269C25.2543 2.98377 25.1906 2.96252 25.0762 2.89752C22.1156 5.80877 19.4775 8.9769 18.1743 13.0094C17.3381 15.5981 17.5631 18.1506 19.6706 20.1175C20.5406 20.9281 21.7425 21.3819 22.9068 22.065C23.0475 23.185 22.9012 23.305 21.705 22.9788C18.0581 21.9825 15.7724 18.11 16.3893 14.2794C16.9762 10.6238 18.9693 7.72002 21.1987 4.94002C22.2056 3.68315 23.3718 2.5519 24.465 1.36377C24.9 0.891271 25.2506 0.861271 25.7493 1.37877C28.1399 3.85877 30.4181 6.41065 32.1018 9.45565C33.4237 11.85 34.2468 14.3619 33.7743 17.08C33.5718 18.2444 32.8218 19.3131 32.2893 20.4875Z" fill="#066653"></path>
<path d="M22.9066 14.3088C23.3997 14.8319 23.8422 15.3063 24.4366 15.9432C24.4366 14.2638 24.4309 12.7594 24.4384 11.2557C24.4403 10.7788 24.2828 10.1619 25.0497 10.1388C25.8597 10.1138 25.8822 10.7288 25.8841 11.3144C25.8878 12.7969 25.8859 14.2794 25.8859 15.9907C26.5741 15.2907 27.0672 14.7044 27.6559 14.2394C27.8716 14.0688 28.3816 14.0588 28.6403 14.1969C29.1016 14.4438 29.0022 14.7969 28.6253 15.1632C27.9034 15.8644 27.2697 16.6576 26.5347 17.3432C26.0303 17.8132 25.8859 18.3113 25.8934 18.9844C25.9272 21.7925 25.8991 24.6013 25.8934 27.4094C25.8916 27.9457 25.9234 28.5488 25.1641 28.5519C24.3934 28.555 24.4366 27.9569 24.4384 27.4107C24.4422 24.6019 24.4216 21.7932 24.4478 18.985C24.4553 18.2969 24.3409 17.7525 23.7766 17.2732C23.1034 16.7013 22.4809 16.0525 21.9259 15.365C21.6878 15.0707 21.4647 14.47 21.6072 14.2263C21.9185 13.6963 22.4434 13.8457 22.9066 14.3088Z" fill="#066653"></path>
<path d="M20.6916 44.1175C20.6916 45.5138 20.6916 46.8157 20.6916 48.16C17.8585 48.16 15.121 48.16 12.2935 48.16C12.271 47.9182 12.2241 47.6532 12.2241 47.3875C12.2185 46.0763 12.121 44.7544 12.2541 43.4569C12.4641 41.4157 11.6072 39.8763 10.4222 38.3219C8.94661 36.3863 7.53849 34.3688 6.38162 32.235C5.77787 31.1207 5.71223 29.69 5.51348 28.3857C5.09161 25.6075 5.42161 22.8582 6.04411 20.1438C6.37411 18.7063 6.76036 17.2788 7.20286 15.8719C7.30411 15.5507 7.75224 15.1113 8.02036 15.1263C8.38036 15.1457 8.96912 15.5075 9.02349 15.8013C9.24474 17.0375 9.37787 18.3013 9.40037 19.5575C9.42099 20.8607 9.27848 22.1669 9.20348 23.4713C9.15848 24.2444 9.10036 25.0169 9.06286 25.7907C8.98973 27.2794 9.72849 28.5169 10.3679 29.7663C11.0091 31.0157 11.7291 32.2257 12.4435 33.435C12.6797 33.835 12.9179 34.3894 13.5629 34.01C14.1404 33.67 13.9754 33.2419 13.7129 32.7494C12.7172 30.8888 11.746 29.015 10.7935 27.1325C10.6472 26.8432 10.5516 26.4657 10.6022 26.1563C10.6529 25.8369 10.846 25.4075 11.0991 25.2907C11.356 25.1719 11.8885 25.2563 12.0797 25.46C12.781 26.2075 13.4616 26.995 14.0204 27.8519C15.0385 29.4125 16.2704 30.75 17.7104 31.925C20.311 34.0457 21.241 36.7838 20.7722 40.0969C20.5904 41.3838 20.7085 42.7132 20.6916 44.1175Z" fill="#F9F8F8"></path>
<path d="M41.3262 15.6372C41.8455 14.7182 42.7322 14.8088 43.0791 15.8129C43.559 17.2053 43.9899 18.626 44.2881 20.0659C44.5449 21.3057 44.7197 22.5922 44.6972 23.8539C44.6522 26.3646 44.7572 28.9445 44.2041 31.3588C43.8159 33.0538 42.4793 34.5492 41.4912 36.0854C40.4375 37.7227 39.2675 39.2856 38.2138 40.9223C37.9852 41.2797 37.9656 41.8134 37.9599 42.267C37.9337 44.2014 37.9492 46.1374 37.9492 48.1411H29.5957C29.5957 46.9732 29.6282 45.8259 29.5888 44.6811C29.5307 42.9693 29.4212 41.2589 29.3349 39.5483C29.1924 36.7314 29.8491 34.1705 32.0859 32.3081C34.1597 30.5812 35.7668 28.4945 37.2724 26.2983C37.4635 26.0191 37.6753 25.6747 37.9599 25.5571C38.3706 25.3865 38.9636 25.1991 39.2861 25.3735C39.7698 25.6347 39.9986 26.2161 39.6689 26.8334C38.6339 28.7709 37.5877 30.7026 36.5996 32.6645C36.4252 33.0126 36.5133 33.4941 36.4814 33.9135C36.8338 33.9023 37.1879 33.8889 37.5703 33.8139C38.7515 31.4579 39.959 29.1906 41.0127 26.8539C41.2583 26.3084 40.9701 25.5283 40.9531 24.8559C40.8931 22.424 40.8071 19.9909 40.8183 17.559C40.8203 16.9129 41.0075 16.1989 41.3262 15.6372ZM36.791 43.1831C37.0785 43.6756 37.2995 44.2489 37.3545 44.7993C37.497 46.2411 36.6659 46.8859 35.4922 47.2221C34.6934 47.4508 33.724 47.3845 32.914 47.1577C32.3891 47.0113 31.7932 46.412 31.6133 45.8852C31.4798 45.4912 31.3674 45.0886 31.2695 44.6811C31.3675 45.0892 31.4796 45.4926 31.6133 45.8872C31.7933 46.414 32.39 47.0134 32.915 47.1596C33.725 47.3864 34.6945 47.4522 35.4931 47.2241C36.6667 46.8878 37.497 46.243 37.3545 44.8012C37.2995 44.2502 37.079 43.676 36.791 43.1831ZM30.8388 42.2661C30.8991 42.7234 30.9681 43.1827 31.0508 43.6391C30.968 43.1821 30.8992 42.7221 30.8388 42.2641C30.8248 42.1589 30.8133 42.0533 30.8017 41.9477C30.8134 42.0539 30.8247 42.1602 30.8388 42.2661ZM43.2793 29.2622C43.4393 29.8328 43.4352 30.4567 43.2871 31.0209C42.8615 32.6358 42.0526 33.8679 40.5508 34.7104C40.1443 34.9394 40.0508 35.7327 39.8203 36.27C39.5747 36.845 39.4332 37.4948 39.0732 37.9848C38.3777 38.9334 37.5421 39.7792 36.7978 40.6928C36.4026 41.1756 36.2418 41.6659 36.3388 42.1889C36.2426 41.6666 36.4031 41.1769 36.7978 40.6948C37.5422 39.7811 38.3786 38.9349 39.0742 37.9868C39.4341 37.4968 39.5747 36.8469 39.8203 36.2719C40.0509 35.7345 40.145 34.9412 40.5517 34.7123C42.0535 33.8699 42.8614 32.6377 43.2871 31.0229C43.4353 30.458 43.4398 29.8333 43.2793 29.2622ZM30.6055 38.4438C30.6065 38.4639 30.6095 38.484 30.6113 38.5043C30.6095 38.4833 30.6066 38.4626 30.6055 38.4418V38.4438ZM39.1904 34.3588C38.9182 34.8718 38.4572 35.2393 37.6494 35.3061C37.6677 35.3064 37.6864 35.3078 37.7051 35.3081C38.4684 35.2468 38.9196 34.8767 39.1904 34.3588ZM42.9619 28.5375C42.9802 28.5668 42.9975 28.5965 43.0146 28.6264C42.9975 28.5965 42.9803 28.5667 42.9619 28.5375Z" fill="#F9F8F8"></path>
</svg>