<svg width="50" height="50" viewBox="0 0 50 50" fill="none" xmlns="http://www.w3.org/2000/svg">
<path d="M43.6953 16.4594C44.2147 15.5401 45.8756 15.9239 46.2227 16.9281C46.7026 18.3205 47.1335 19.7412 47.4316 21.181C47.6885 22.4209 47.8633 23.7074 47.8408 24.9691C47.7958 27.4797 47.9008 30.0596 47.3477 32.474C46.9595 34.169 45.6229 35.6643 44.6348 37.2006C43.5812 38.8379 43.2714 40.1732 42.2178 41.8099C41.9891 42.1673 41.1097 42.9284 41.1035 43.3822C41.0773 45.3166 42.2178 46.3931 42.2178 48.3969H38.3926C38.4752 48.3798 38.5571 48.362 38.6367 48.3392C39.8103 48.003 40.6405 47.3581 40.498 45.9164C40.4774 45.7094 40.4324 45.4994 40.3701 45.2914C40.4321 45.4988 40.4774 45.708 40.498 45.9144C40.6405 47.3563 39.8095 48.001 38.6357 48.3373C38.5533 48.3609 38.4686 48.3794 38.3828 48.3969H38.3926C37.8265 48.5134 37.197 48.4996 36.6074 48.3969H36.6172C36.4255 48.3638 36.2373 48.3231 36.0576 48.2728C35.5327 48.1264 34.9368 47.5271 34.7568 47.0004C34.6664 46.7334 34.5861 46.4624 34.5127 46.1888C34.5862 46.4631 34.6662 46.7348 34.7568 47.0023C34.9368 47.5292 35.5336 48.1285 36.0586 48.2748C36.235 48.3242 36.4193 48.3641 36.6074 48.3969H32.2109C32.2109 47.2287 32.7718 46.9403 32.7324 45.7953C32.6743 44.0836 32.5648 42.3739 32.4785 40.6635C32.336 37.8466 32.9927 35.2857 35.2295 33.4232C37.3032 31.6963 38.9104 29.6097 40.416 27.4135C40.6071 27.1343 40.8189 26.7899 41.1035 26.6722C41.5141 26.5016 42.1072 26.3143 42.4297 26.4887C42.9133 26.7498 43.1422 27.3313 42.8125 27.9486C41.7775 29.8861 40.7313 31.8178 39.7432 33.7797C39.5688 34.1278 39.6569 34.6093 39.625 35.0287C39.9774 35.0174 40.3315 35.004 40.7139 34.9291C41.895 32.5729 42.6416 30.2854 43.6953 27.9486C43.9408 27.4031 44.1135 26.6434 44.0967 25.9711C44.0367 23.5392 43.9507 21.1061 43.9619 18.6742C43.9636 18.0279 43.3766 17.0211 43.6953 16.4594ZM33.7637 39.3529C33.7249 39.4997 33.7662 39.687 33.7744 39.85C33.8344 41.0279 33.8268 42.2152 33.9824 43.3812C34.0427 43.8386 34.1117 44.2979 34.1943 44.7543C34.1116 44.2973 34.0428 43.8373 33.9824 43.3793C33.8268 42.2139 33.8344 41.0259 33.7744 39.848C33.7662 39.6852 33.7257 39.4993 33.7637 39.3529ZM39.8984 44.2406C39.9489 44.3244 39.9987 44.4101 40.0449 44.4984C39.9987 44.4101 39.949 44.3244 39.8984 44.2406ZM46.5303 30.975C46.5629 31.3663 46.5282 31.7643 46.4307 32.1361C46.005 33.7509 45.197 34.9831 43.6953 35.8256C43.2885 36.0543 43.1945 36.8476 42.9639 37.3851C42.7183 37.96 42.5776 38.61 42.2178 39.1C41.5222 40.0486 40.6857 40.8943 39.9414 41.808C39.5486 42.2878 39.3882 42.7749 39.4814 43.2943C39.3889 42.7756 39.5491 42.2892 39.9414 41.8099C40.6858 40.8962 41.5222 40.05 42.2178 39.1019C42.5777 38.612 42.7183 37.962 42.9639 37.3871C43.1945 36.8496 43.2884 36.0553 43.6953 35.8265C45.1969 34.9841 46.005 33.7528 46.4307 32.1381C46.5284 31.7657 46.5631 31.3669 46.5303 30.975ZM42.4473 35.224C42.1965 35.8645 41.727 36.3438 40.7939 36.4213C40.812 36.4216 40.8302 36.423 40.8486 36.4232C41.73 36.3526 42.1958 35.8705 42.4473 35.224ZM46.4229 30.3773C46.4345 30.4188 46.4462 30.4603 46.4561 30.5023C46.4461 30.4603 46.4345 30.4188 46.4229 30.3773ZM46.1055 29.6527C46.1238 29.6819 46.1411 29.7117 46.1582 29.7416C46.141 29.7117 46.1238 29.6819 46.1055 29.6527Z" fill="#F9F8F8"></path>
<path d="M5.33722 15.8148C4.81784 14.8955 3.93018 14.9862 3.58331 15.9906C3.10335 17.3829 2.67245 18.8036 2.37433 20.2435C2.11748 21.4833 1.94269 22.7698 1.96515 24.0316C2.01015 26.5422 1.90519 29.1221 2.45831 31.5365C2.84643 33.2314 3.79735 35.5481 4.78546 37.0843C5.83921 38.7218 6.53542 39.7599 7.58917 41.3968C7.81804 41.7541 8.69626 41.9913 8.70245 42.4447C8.7287 44.379 8.44954 46.315 8.44952 48.3187H18.1507C18.1506 47.1506 17.6738 46.1238 17.7132 44.9788C17.7713 43.267 18.0644 41.4512 18.1507 39.7406C18.2932 36.9237 16.8134 34.3482 14.5765 32.4857C12.5028 30.7588 10.8965 28.6721 9.39093 26.4759C9.19972 26.1966 8.98738 25.8522 8.70245 25.7347C8.292 25.5641 7.69985 25.3771 7.37726 25.5511C6.89356 25.8123 6.66459 26.3936 6.99444 27.0111C8.02944 28.9486 8.3198 31.3773 9.30792 33.3392C9.48245 33.6871 10.1501 33.6718 10.1819 34.0911C9.82944 34.0799 9.4746 34.0665 9.0921 33.9915C7.9111 31.6355 7.89577 29.6085 6.8421 27.2718C6.59658 26.7261 6.82522 25.663 6.8421 24.9906C6.9021 22.5587 6.85335 20.1412 6.8421 17.7093C6.84023 17.0631 5.65597 16.3766 5.33722 15.8148ZM16.0423 38.4154C16.0811 38.5621 16.0398 38.7494 16.0316 38.9124C15.9716 40.0904 15.9791 41.2776 15.8235 42.4437C15.6623 43.6667 15.4428 44.9023 15.0491 46.0648C14.8691 46.5916 14.2733 47.1909 13.7484 47.3372C12.9384 47.5641 11.9689 47.6298 11.1702 47.4017C10.3451 47.1653 9.69126 46.7759 9.42413 46.0648C9.69162 46.7747 10.345 47.1635 11.1692 47.3997C11.9679 47.6284 12.9375 47.5621 13.7474 47.3353C14.2724 47.189 14.8691 46.5897 15.0491 46.0628C15.4428 44.9004 15.6623 43.6647 15.8235 42.4417C15.9791 41.2763 15.9716 40.0884 16.0316 38.9105C16.0397 38.7476 16.0803 38.5617 16.0423 38.4154ZM6.75616 36.222C6.78301 36.3005 6.81149 36.3762 6.8421 36.4476C7.08769 37.0225 7.22831 37.6725 7.58819 38.1624C8.28376 39.1111 9.12023 39.9568 9.86456 40.8704C10.072 41.1238 10.2142 41.3798 10.2894 41.6409C10.2141 41.3804 10.0715 41.1252 9.86456 40.8724C9.12029 39.9588 8.28469 39.1123 7.58917 38.1644C7.22917 37.6744 7.08773 37.0245 6.8421 36.4495C6.81126 36.3777 6.78318 36.3011 6.75616 36.222ZM3.47198 31.5365C3.91931 32.9862 4.71544 34.1053 6.11066 34.888C6.44653 35.0768 6.57047 35.6499 6.73273 36.1468C6.57077 35.6504 6.44704 35.0777 6.11163 34.889C4.71583 34.106 3.9192 32.9871 3.47198 31.5365ZM7.3587 34.2865C7.60948 34.9271 8.07957 35.4064 9.013 35.4837C8.99459 35.4841 8.97605 35.4855 8.95733 35.4857C8.07594 35.415 7.61018 34.933 7.3587 34.2865ZM3.3753 31.1986C3.39041 31.2559 3.40805 31.3121 3.42413 31.3685C3.40823 31.3127 3.39025 31.2572 3.3753 31.2005C3.36723 31.1697 3.36202 31.1379 3.3548 31.1068C3.3619 31.1373 3.36739 31.1684 3.3753 31.1986ZM4.82257 29.6566C4.89203 29.8229 4.95926 29.9943 5.02472 30.1663C4.95927 29.9944 4.89197 29.823 4.82257 29.6566Z" fill="#F9F8F8"></path>
<path d="M32.2016 12.02C29.7641 15.0256 28.4178 18.4475 27.5947 22.1168C28.5641 22.3456 29.2316 22.2087 29.8184 21.3018C30.7334 19.8831 32.1191 18.9087 33.6116 18.1287C34.0016 17.9262 34.5528 17.5212 34.851 18.2243C35.0778 18.7587 34.8322 19.1425 34.3016 19.495C33.3847 20.1043 32.5578 20.8518 31.7084 21.5581C31.5547 21.6856 31.4722 21.8956 31.266 22.2025C33.1428 22.2025 34.8772 22.2025 36.6097 22.2025C36.8291 22.2025 37.1235 22.1181 37.251 22.2268C37.521 22.4556 37.8359 22.7706 37.8809 23.0831C37.9091 23.295 37.536 23.6137 37.281 23.7931C37.131 23.8981 36.8553 23.8306 36.6378 23.8306C28.9522 23.8268 21.2666 23.8231 13.5809 23.8175C12.9566 23.8175 12.1522 23.8868 12.1485 23.0493C12.1447 22.2587 12.8872 22.2006 13.5585 22.21C15.1185 22.2287 16.6803 22.2156 18.3585 22.2156C17.6572 21.0818 16.8303 20.2218 15.7522 19.5993C15.4859 19.4437 15.1016 19.3218 15.0041 19.0875C14.8822 18.7987 14.9216 18.3718 15.0528 18.0756C15.1147 17.9387 15.6078 17.8506 15.8159 17.9425C17.5409 18.705 18.8591 19.9737 19.9785 21.4562C20.5785 22.2468 20.5559 22.2637 21.7203 22.1418C20.6122 16.9393 18.5028 12.2993 14.4172 8.73122C13.9766 8.34622 13.5922 7.86058 14.0441 7.42433C14.2672 7.20933 15.0866 7.29996 15.4072 7.54808C17.9291 9.50183 19.6841 12.0875 21.0041 14.9412C21.7859 16.6337 22.2847 18.455 22.9203 20.2168C22.986 20.4006 23.1172 20.56 23.3178 20.8987C23.3178 19.0543 23.2691 17.415 23.3253 15.7787C23.481 11.2606 24.3828 6.90371 26.3366 2.80121C26.5428 2.36746 26.8297 1.74558 27.5291 2.10995C28.1891 2.45308 27.9416 2.99747 27.7072 3.47997C25.2791 8.47934 24.6866 13.7806 25.0991 19.2475C25.1628 20.085 25.2322 20.9212 25.3278 21.755C25.3466 21.9218 25.491 22.0737 25.6316 22.3306C26.2541 20.5031 26.7378 18.7981 27.4091 17.1693C28.9653 13.3893 31.0803 9.98933 34.4497 7.51683C34.4985 7.48058 34.5341 7.38809 34.5772 7.38684C34.9991 7.37809 35.5578 7.2137 35.8128 7.42058C36.3172 7.8287 35.8616 8.23497 35.5316 8.57559C34.4347 9.70747 33.3416 10.8393 32.2016 12.02ZM23.4322 21.2812C23.4135 21.1781 23.3947 21.075 23.3778 20.9718C23.3403 20.9775 23.3028 20.9831 23.2653 20.9887C23.2953 21.1181 23.3253 21.2456 23.4322 21.2812Z" fill="#BEA001"></path>
<path d="M33.817 35.41C32.7689 37.6062 32.4782 39.8106 32.8251 42.1737C33.0632 43.795 32.9957 45.47 32.9564 47.1194C32.9489 47.4325 32.4351 47.7344 32.1539 48.0412C31.9439 47.7469 31.5707 47.4675 31.5463 47.1606C31.3757 44.9587 31.2013 42.7525 31.1732 40.5468C31.1357 37.4693 31.8726 34.58 34.2988 32.505C36.3332 30.7637 37.8614 28.6575 39.397 26.5212C40.3701 25.1681 41.1614 24.8606 42.652 25.1156C42.607 24.1337 42.5526 23.1762 42.5245 22.2181C42.4739 20.5987 42.2207 18.9481 42.4495 17.3662C42.7682 15.1718 44.7651 13.9387 46.2614 15.11C46.8426 15.5656 47.2982 16.345 47.5157 17.0662C48.9482 21.8131 49.5895 26.63 48.8807 31.6056C48.4326 34.7375 46.5014 37.0237 44.8514 39.49C44.2364 40.41 43.507 41.2575 42.9426 42.2037C42.6407 42.7118 42.4757 43.3525 42.4307 43.945C42.3501 45.0018 42.4551 46.07 42.3839 47.1275C42.3614 47.4387 42.007 47.7294 41.8045 48.0269C41.5439 47.7419 41.0807 47.4737 41.0507 47.1669C40.7751 44.1887 41.1876 41.4656 43.267 39.0181C44.7745 37.2412 45.8732 35.0975 47.002 33.0343C47.4276 32.2531 47.5739 31.2387 47.587 30.3262C47.6226 28.0887 47.6563 25.8306 47.407 23.6112C47.1782 21.565 46.5782 19.5612 46.1432 17.5393C46.1226 17.4475 46.1245 17.3406 46.0757 17.2693C45.7795 16.8418 45.7045 15.9781 44.9845 16.2668C44.5232 16.4506 43.9739 17.1043 43.9514 17.5712C43.8576 19.4343 43.9832 21.3081 43.9757 23.1768C43.9645 25.375 44.5907 27.6244 43.5145 29.7475C42.7382 31.2825 41.9751 32.8231 41.1576 34.335C40.8576 34.8918 40.6926 35.9675 39.697 35.3168C38.8289 34.7506 39.6951 34.1381 39.9407 33.6018C40.7826 31.7612 41.6714 29.94 42.5507 28.1162C42.8376 27.5256 42.7889 27.005 42.2076 26.66C41.5701 26.2831 41.1389 26.7237 40.792 27.1737C40.1714 27.9737 39.6426 28.8475 38.9882 29.6175C37.972 30.815 36.8807 31.9468 35.827 33.1143C35.1613 33.8506 34.507 34.6025 33.817 35.41Z" fill="#BEA001"></path>
<path d="M8.70935 41.8625C8.83873 42.2787 9.00749 42.625 9.01499 42.9756C9.04874 44.3175 9.01873 45.6612 9.0356 47.0031C9.04123 47.5075 9.00561 48.03 8.39061 48.0356C7.74186 48.0412 7.64999 47.5069 7.65561 46.9637C7.66499 45.9031 7.74185 44.8331 7.62935 43.7831C7.55248 43.0825 7.3181 42.3325 6.94123 41.7406C5.40935 39.3362 3.68623 37.0462 2.25936 34.5837C1.61811 33.4743 1.31998 32.0781 1.19248 30.7812C0.839977 27.2375 0.920604 23.6937 1.8656 20.2206C2.20498 18.9743 2.50498 17.7093 2.95873 16.5025C3.49123 15.0856 4.17935 14.6393 5.31748 14.7068C6.26998 14.7631 7.05561 15.625 7.55623 16.7962C8.25936 18.4437 7.66686 20.0625 7.64061 21.6931C7.61999 22.8118 7.53561 23.9306 7.47748 25.1187C8.90436 24.7081 9.86999 25.2593 10.6406 26.3218C11.5781 27.6131 12.4875 28.9325 13.5018 30.1618C14.175 30.9768 14.9962 31.6725 15.7762 32.3937C18.1181 34.5618 19.0144 37.3 18.9487 40.4093C18.9037 42.5606 18.8231 44.7106 18.735 46.8581C18.7237 47.1468 18.6506 47.4825 18.48 47.6956C18.3356 47.8775 17.9475 48.0556 17.7806 47.9825C17.5556 47.8812 17.2987 47.54 17.295 47.2987C17.2744 45.4581 17.1319 43.5937 17.3681 41.7812C17.8312 38.2318 16.9593 35.2218 14.1731 32.945C12.5793 31.6406 11.4262 30.0343 10.29 28.3743C9.87561 27.7706 9.40124 27.1862 8.85749 26.6987C8.25936 26.1625 7.49248 26.5019 7.53748 27.3081C7.57685 28.0219 7.78499 28.7681 8.09436 29.4162C8.82374 30.9381 9.65998 32.4094 10.4475 33.9044C10.5187 34.0394 10.605 34.1969 10.5956 34.3394C10.5731 34.6619 10.4962 34.9787 10.4419 35.2987C10.08 35.1843 9.51561 35.1787 9.38623 34.9406C8.25748 32.8325 7.19248 30.6881 6.14435 28.5387C6.00373 28.2518 6.01498 27.8718 6.02811 27.5362C6.14061 24.5131 6.29061 21.4925 6.37499 18.4675C6.38999 17.9331 6.22686 17.3544 5.99623 16.8687C5.85748 16.5781 5.42248 16.2537 5.12998 16.2612C4.82623 16.2687 4.35749 16.6025 4.26374 16.8912C3.79874 18.3306 3.3656 19.7869 3.05248 21.2637C2.80123 22.4425 2.7281 23.6606 2.59497 24.8637C2.08122 29.5131 2.7131 33.8593 5.80123 37.6281C6.86623 38.9312 7.7231 40.4006 8.70935 41.8625Z" fill="#BEA001"></path>
<path d="M22.9805 28.3412C22.0599 28.345 21.2217 28.36 20.3855 28.3468C19.823 28.3393 19.2399 28.1556 19.223 27.5412C19.208 26.9137 19.7049 26.6175 20.3574 26.6306C21.1936 26.6493 22.0317 26.6156 22.868 26.6362C23.3855 26.6493 23.963 26.5968 24.0324 27.3725C24.098 28.1031 23.6236 28.255 22.9805 28.3412Z" fill="#BEA001"></path>
<path d="M30.6556 28.1724C29.4144 28.2437 28.2369 28.3393 27.0669 28.2868C26.7913 28.2756 26.3244 27.7693 26.3281 27.4943C26.3319 27.2056 26.7707 26.7056 27.0575 26.6775C28.1038 26.5725 29.1688 26.5724 30.2206 26.6437C31.0194 26.6974 31.175 27.2581 30.6556 28.1724Z" fill="#BEA001"></path>
<path d="M22.5156 31.7518C22.525 31.0437 22.8831 30.8168 23.4756 30.8225C24.5313 30.8337 25.5925 30.7625 26.6388 30.86C26.9875 30.8918 27.4975 31.2743 27.5856 31.5943C27.7506 32.1831 27.2313 32.5012 26.7044 32.5256C25.5888 32.5762 24.4656 32.5912 23.3556 32.5106C23.0613 32.4887 22.7969 32.0687 22.5156 31.7518Z" fill="#BEA001"></path>
<path d="M16.437 28.3937C16.1989 28.3993 16.0395 28.3731 15.8895 28.4012C14.6652 28.6281 13.9995 28.0225 13.6133 26.8043C14.712 26.5062 15.807 26.5418 16.8833 26.7818C17.0689 26.8231 17.3108 27.3781 17.2414 27.6081C17.1495 27.9137 16.7745 28.1331 16.437 28.3937Z" fill="#BEA001"></path>
<path d="M35.8855 26.5306C36.1986 26.6337 36.4348 26.7368 36.6767 26.8418C36.0298 28.0806 34.4811 28.6824 33.3111 28.1593C33.0748 28.0543 32.7861 27.5537 32.8592 27.3743C32.998 27.0387 33.3523 26.6212 33.6729 26.5649C34.3648 26.4424 35.0942 26.5287 35.8855 26.5306Z" fill="#BEA001"></path>
<path d="M20.0969 32.2824C18.8087 32.9106 18.4656 32.7456 17.3125 30.8749C18.2275 30.8749 19.0656 30.7399 19.8306 30.9181C20.4175 31.0549 20.4025 31.7068 20.0969 32.2824Z" fill="#BEA001"></path>
<path d="M30.2075 30.9275C31.1375 30.8787 32.0038 30.8787 33.1307 30.8787C32.2888 31.4881 32.0694 32.5562 30.9669 32.5131C30.6219 32.5 30.1438 32.2919 29.9919 32.0237C29.855 31.78 30.08 31.3337 30.2075 30.9275Z" fill="#BEA001"></path>
<path d="M23.3931 21.328C23.3256 21.2455 23.2956 21.1181 23.2656 20.9887C23.3031 20.9831 23.3406 20.9774 23.3781 20.9718C23.395 21.0749 23.4137 21.178 23.3931 21.328Z" fill="#F9F8F8"></path>
</svg>