<svg width="38" height="38" viewBox="0 0 38 38" fill="none" xmlns="http://www.w3.org/2000/svg">
<rect width="38" height="38" rx="6" fill="#E6F0E0"></rect>
<path d="M27.2094 15.1712C28.3591 18.4083 26.8832 21.7389 23.8345 22.8587C23.2546 23.0717 22.6558 23.1674 22.0367 23.1404C21.7942 23.1298 21.5538 23.1045 21.5532 22.7964C21.5526 22.4921 21.7923 22.4611 22.0337 22.4421C24.661 22.2353 26.3781 20.6727 26.8406 18.0725C27.2128 15.9795 25.9398 13.5335 24.0073 12.7065C23.5569 12.5138 23.3551 12.2686 23.2529 11.7755C22.8208 9.69038 21.0269 8.2916 18.9199 8.32387C16.8387 8.35576 15.1143 9.81872 14.7065 11.937C14.6354 12.3063 14.4941 12.5091 14.1447 12.6603C12.3625 13.4315 11.4709 14.8574 11.1906 16.7349C10.8472 19.0345 12.2812 21.3178 14.2057 22.0833C14.7818 22.3124 15.3816 22.4025 15.9927 22.4389C16.2509 22.4543 16.5254 22.4709 16.5161 22.803C16.5068 23.1366 16.2226 23.1325 15.9702 23.1407C13.4665 23.2214 11.0548 21.2505 10.5319 18.7066C9.96757 15.9615 11.2602 13.1272 13.6341 12.065C13.9523 11.9227 13.9808 11.6619 14.0523 11.3975C14.6171 9.30781 16.3752 7.79511 18.4958 7.57404C20.5224 7.36275 22.6775 8.44317 23.4765 10.3437C23.9283 11.4183 24.4915 12.2031 25.487 12.8037C26.3368 13.3163 26.8321 14.203 27.2094 15.1712Z" fill="#2C6639"></path>
<path d="M16.6555 20.1477C16.3067 19.802 15.9834 19.4832 15.6623 19.1622C15.489 18.989 15.358 18.783 15.5595 18.569C15.7771 18.3377 16.0086 18.4458 16.1972 18.6385C16.9774 19.4354 17.7533 20.2366 18.5307 21.0363C18.5827 21.0162 18.6347 20.9962 18.6866 20.9762C18.6866 20.7109 18.6873 20.4457 18.6865 20.1805C18.6834 19.1341 18.6742 18.0877 18.6803 17.0414C18.6818 16.7736 18.639 16.4019 19.0591 16.4402C19.4398 16.475 19.3894 16.829 19.3902 17.1046C19.3932 18.1873 19.3891 19.2702 19.3946 20.3529C19.3955 20.5205 19.3431 20.6985 19.4797 20.9131C19.8923 20.5257 20.2962 20.1534 20.6919 19.7725C21.019 19.4577 21.3321 19.1283 21.6596 18.814C21.8784 18.604 22.1233 18.2564 22.437 18.5764C22.7291 18.8744 22.3902 19.1069 22.1898 19.3114C21.7744 19.7356 21.3947 20.2123 20.9205 20.5581C19.6437 21.4894 19.2255 22.684 19.3601 24.2525C19.4985 25.8648 19.4041 27.4984 19.3832 29.1223C19.3776 29.5576 19.5186 29.6948 19.9514 29.6915C22.1868 29.6748 24.4223 29.6841 26.6578 29.6848C26.7974 29.6848 26.9376 29.6816 27.0766 29.692C27.3074 29.7092 27.5012 29.8068 27.508 30.0596C27.5149 30.3159 27.3227 30.4178 27.0924 30.4395C26.9538 30.4526 26.8133 30.4477 26.6736 30.4477C21.6089 30.4496 16.5442 30.4514 11.4795 30.4518C11.3053 30.4518 11.1295 30.4507 10.9572 30.4284C10.7498 30.4015 10.5808 30.2957 10.5782 30.0661C10.5755 29.8352 10.7433 29.7285 10.9511 29.7006C11.1058 29.6798 11.2645 29.6844 11.4215 29.6843C13.622 29.6831 15.8227 29.6681 18.0229 29.6942C18.5176 29.7001 18.6803 29.5083 18.6794 29.0622C18.6749 26.9151 18.6741 24.7681 18.6718 22.6211C18.6714 22.2332 18.5259 21.937 18.2222 21.6698C17.6854 21.1977 17.1929 20.6752 16.6555 20.1477Z" fill="#2C6639"></path>
</svg>