<svg width="124" height="124" viewBox="0 0 124 124" fill="none" xmlns="http://www.w3.org/2000/svg">
<path d="M62.1978 10.8643C62.956 10.8626 63.6252 11.191 64.2231 11.6543C64.8161 12.1137 65.4194 12.7681 66.0659 13.5625C73.5 22.6972 73.9344 36.5192 66.9116 46.2178C65.5249 48.1328 64.9046 49.9436 64.9878 52.2334C65.122 55.9265 65.0589 59.6452 65.0386 63.6699C66.9041 62.3592 68.1275 61.3439 68.563 59.168C70.8837 47.5749 81.3919 39.0677 92.9917 39.0439C93.9189 39.0421 94.7278 39.0838 95.397 39.2275C96.0738 39.3729 96.709 39.6439 97.1743 40.1797C97.6401 40.716 97.8186 41.3824 97.8657 42.0723C97.9123 42.7538 97.8371 43.558 97.7017 44.4717C96.2843 54.032 88.0554 62.8878 78.6284 64.9727C78.4098 65.021 78.182 65.0823 77.9272 65.1514C77.6804 65.2183 77.4061 65.2933 77.1304 65.3555C76.5883 65.4777 75.9335 65.5786 75.2681 65.457C73.1533 65.0705 71.5297 65.6303 70.0298 66.6191C69.264 67.124 68.535 67.7381 67.7876 68.4072C67.0594 69.0591 66.281 69.7947 65.4995 70.4482C64.8131 71.0223 64.6445 71.8393 64.9019 72.6416C65.1658 73.4645 65.8718 74.2128 66.8647 74.4805C79.4283 77.8667 86.0942 86.8562 89.6411 98.5225C89.8426 99.1853 89.9258 99.9718 89.6392 100.69C89.3247 101.479 88.6444 101.992 87.7339 102.171C87.244 102.267 86.7701 102.254 86.3296 102.103C85.8871 101.951 85.547 101.683 85.2896 101.381C84.8106 100.818 84.5735 100.069 84.4165 99.5469C82.7934 94.1455 80.2309 89.3615 76.1235 85.5518C74.2169 83.7834 72.2672 82.2181 69.7993 81.1846C72.5074 85.9339 74.1908 90.7898 75.147 95.9053C75.357 97.0288 75.4003 98.2335 75.4907 99.2344C75.5483 99.8713 75.4618 100.556 75.0728 101.131C74.6644 101.734 74.0246 102.066 73.2866 102.158C72.5219 102.253 71.825 102.058 71.2925 101.574C70.7903 101.118 70.5318 100.495 70.4136 99.8975C70.0445 98.0312 69.8521 96.4109 69.4458 94.6738C68.2711 89.6513 66.4033 85.009 63.1558 81.0537C62.707 80.5071 62.5381 80.1933 62.2886 79.998C59.719 82.396 58.1373 85.5558 56.7612 88.9961C55.5266 92.0828 54.7702 95.3181 54.394 98.6514C54.3019 99.4678 54.2142 100.987 52.7974 101.834C52.437 102.049 52.0122 102.207 51.5425 102.218C51.0609 102.229 50.5991 102.084 50.186 101.8C49.0129 100.994 48.8599 99.7662 48.9966 98.7725C49.835 92.6772 51.2941 86.6799 54.5981 81.2285C54.6301 81.1758 54.6625 81.1265 54.6929 81.0791C51.3412 82.4962 48.6267 84.7727 46.2192 87.5547C43.293 90.9362 41.3347 94.9046 40.0171 99.2363C39.9355 99.5045 39.8328 99.8705 39.7144 100.201C39.5939 100.537 39.4287 100.924 39.1772 101.267C38.9164 101.622 38.5443 101.954 38.022 102.119C37.5063 102.282 36.9564 102.246 36.3999 102.077C35.8416 101.907 35.3658 101.629 35.0278 101.206C34.6866 100.779 34.56 100.297 34.5376 99.8564C34.4974 99.064 34.8052 98.1947 34.9595 97.6895C38.5725 85.8565 45.7577 77.3761 58.312 74.2715C59.7689 73.9112 60.4201 71.7866 59.0952 70.5381C57.3263 68.8712 55.3874 67.4481 53.4106 65.8369C53.0335 65.5297 52.5866 65.5387 51.6235 65.5732C39.1791 66.02 28.6602 55.6775 26.856 43.3008C26.685 42.1278 26.7188 40.9613 27.4937 40.1221C28.2368 39.3173 29.4085 39.1033 30.6528 39.0547C42.5732 38.5892 53.2447 46.7346 56.1255 58.748C56.6718 61.0262 57.5807 62.5922 59.4771 63.8555L59.4839 63.8594C59.5295 63.8903 59.5747 63.9195 59.6187 63.9492C59.6187 61.2066 59.6187 58.6932 59.6187 56.1797C59.6186 55.5114 59.5577 54.5864 59.6333 53.7598C59.9004 50.8384 59.1364 48.4338 57.3345 45.8164C50.4161 35.7672 51.0349 23.061 58.397 13.5947C59.0178 12.7965 59.6024 12.1362 60.1841 11.6709C60.7724 11.2002 61.4367 10.866 62.1978 10.8643ZM91.7759 44.4443C91.3924 44.4225 90.8272 44.4747 90.022 44.6221C84.688 45.5981 80.3866 48.296 77.2144 52.6875C75.5471 54.9956 74.2524 57.368 73.9126 60.0361C74.1424 60.091 74.3801 60.1125 74.644 60.1113C74.9021 60.1102 75.1763 60.0892 75.5024 60.0605C75.792 60.0351 76.1238 60.0039 76.4771 59.9844C84.0481 58.334 88.9041 53.6299 91.646 46.4668C91.9335 45.7156 92.0809 45.1851 92.1235 44.8203C92.1441 44.6445 92.135 44.5481 92.1265 44.502C92.079 44.4839 91.975 44.4557 91.7759 44.4443ZM32.894 44.4277C32.7583 44.4363 32.6782 44.4551 32.6343 44.4688C32.6264 44.5259 32.6218 44.6417 32.6509 44.8467C32.7075 45.2452 32.8703 45.8079 33.1636 46.5869C33.3706 47.1369 33.5953 47.6682 33.9546 48.5508C34.6994 49.8571 35.1795 50.9663 35.9507 51.9922C39.3727 56.5439 43.5357 59.6535 49.2515 60.0566C49.8856 60.1014 50.3143 60.0931 50.5972 60.0449C50.7173 60.0245 50.785 59.9989 50.8208 59.9834C50.8264 59.9451 50.8321 59.8751 50.8218 59.7588C50.7964 59.4736 50.6942 59.0524 50.481 58.4404C47.8189 50.8022 42.5021 46.1815 34.5815 44.6152C33.788 44.4583 33.2477 44.4055 32.894 44.4277ZM62.313 17.6084C56.7142 23.5655 56.2706 34.2567 61.8892 43.1562C62.0489 43.3555 62.1619 43.4524 62.2261 43.4971C62.269 43.4636 62.3368 43.4055 62.4272 43.3018C62.5738 43.1336 62.7225 42.9254 62.9058 42.665C67.9774 35.4593 67.8731 25.2453 62.647 18.1025C62.5401 17.9565 62.4309 17.7836 62.3657 17.6846C62.3472 17.6564 62.3289 17.6316 62.313 17.6084Z" fill="#1A9E96" stroke="#1A9E96" stroke-width="2"></path>
<path d="M12.9092 103.515C17.8276 101.06 22.6397 101.642 27.1943 104.205C29.9991 105.784 32.7771 106.475 35.8291 105.689C37.0823 105.367 38.2423 104.808 39.4531 104.159C44.9562 101.208 50.5505 101.2 55.9707 104.279C58.0822 105.479 60.1178 106.031 62.1162 106.015C64.1167 105.998 66.1436 105.41 68.2344 104.234C73.728 101.144 79.3188 101.257 84.7373 104.314C86.7657 105.459 88.7227 105.991 90.6494 105.981C92.5782 105.972 94.5395 105.417 96.5732 104.294C101.153 101.764 106.046 101.029 111.087 103.427C111.497 103.622 112.254 103.943 112.754 104.467C113.035 104.762 113.271 105.151 113.347 105.646C113.421 106.131 113.326 106.622 113.118 107.102C112.924 107.55 112.656 107.936 112.292 108.219C111.92 108.508 111.506 108.643 111.099 108.675C110.354 108.734 109.603 108.447 109.068 108.229C105.822 106.909 102.671 106.996 99.6211 108.688C93.6353 112.01 87.6755 112.075 81.6162 108.686C78.1694 106.758 74.5388 106.796 71.0176 108.769C65.1972 112.03 59.3228 112.169 53.4316 108.929C52.1497 108.224 50.8322 107.686 49.2363 107.451C46.4762 107.157 44.1229 107.741 41.791 108.977C36.2204 111.928 30.5216 112.174 24.8574 108.898C21.6865 107.065 18.424 106.772 15.041 108.241C14.5342 108.461 13.8662 108.685 13.1768 108.605C12.3911 108.514 11.7456 108.053 11.334 107.256C10.8856 106.387 10.8884 105.531 11.3428 104.802C11.7357 104.172 12.3877 103.775 12.9092 103.515Z" fill="#1A9E96" stroke="#1A9E96" stroke-width="2"></path>
</svg>