<svg width="124" height="124" viewBox="0 0 124 124" fill="none" xmlns="http://www.w3.org/2000/svg">
<path d="M71.6704 13.9741C72.1935 13.9731 72.7078 14.1361 73.2056 14.4272C73.6874 14.7092 74.0768 15.0629 74.3315 15.5073C74.5907 15.9596 74.6706 16.4353 74.6411 16.8862C74.5866 17.7193 74.1506 18.5228 73.8071 19.1177C66.0892 32.4862 62.9261 47.0015 63.0474 62.3062C63.0814 66.6004 63.6649 70.8161 63.9927 75.2358C64.0237 75.654 64.0959 75.8606 64.1626 75.9595C64.1882 75.9974 64.2157 76.0231 64.2563 76.0464C64.3013 76.0721 64.3904 76.1097 64.5552 76.1304C64.9816 76.1838 65.2353 76.1337 65.3765 76.063C65.4808 76.0107 65.616 75.9046 65.7163 75.5757C65.9811 74.7069 66.2098 73.8196 66.4243 72.9194C69.2919 60.8853 75.1619 50.6096 85.3315 42.98C85.4898 42.8613 85.6563 42.7299 85.8423 42.5825C86.024 42.4385 86.2218 42.281 86.4263 42.1284C86.8287 41.828 87.3046 41.5059 87.8198 41.2896C88.341 41.0707 88.9709 40.9316 89.6431 41.0903C90.3263 41.2518 90.9041 41.6855 91.3813 42.3257C91.8567 42.9634 92.1187 43.648 92.0327 44.3608C91.948 45.0613 91.5507 45.5807 91.1606 45.9468C90.7742 46.3094 90.3036 46.6061 89.9136 46.8433C89.4857 47.1034 89.1607 47.2895 88.9038 47.4849C79.7054 54.4816 74.5193 63.9147 71.8481 74.936C71.5778 76.0517 71.7774 76.2282 71.7847 76.2349C71.8164 76.2644 71.9364 76.3509 72.2856 76.4116C72.6322 76.4718 73.1179 76.4912 73.7866 76.4604C78.5419 76.2417 83.2892 76.3111 88.0063 76.4058C92.7331 76.5006 97.4243 76.6206 102.115 76.5093C102.915 76.4903 103.751 76.5014 104.585 76.5962C105.246 76.6712 105.875 76.9162 106.347 77.4097C106.823 77.9063 107.042 78.5515 107.074 79.2368C107.105 79.9087 106.957 80.5721 106.54 81.1157C106.119 81.6627 105.512 81.9754 104.84 82.105C104.062 82.2552 103.268 82.2602 102.586 82.2603C75.6497 82.2634 48.7128 82.2612 21.7759 82.2476C20.9755 82.2472 20.0882 82.2039 19.229 81.9956C18.5812 81.8386 17.9893 81.5036 17.5835 80.9575C17.173 80.405 17.0224 79.7285 17.0962 79.0249C17.1652 78.3673 17.4405 77.7948 17.897 77.3687C18.3436 76.9518 18.9078 76.7256 19.4839 76.6411C20.3335 76.5165 21.1943 76.5178 21.9575 76.5161C29.7531 76.4986 37.5488 76.4908 45.5923 76.481C47.1784 76.477 48.3087 76.4481 49.1147 76.3315C49.95 76.2107 50.1882 76.0265 50.2612 75.9351C50.3206 75.8606 50.44 75.6318 50.3354 74.8647C50.2335 74.1168 49.9554 73.0986 49.5249 71.6636C46.4954 61.5645 41.2165 53.0162 32.6362 46.645C32.1135 46.2569 31.4457 45.7073 31.0835 44.9849C30.8904 44.5996 30.7749 44.1494 30.8228 43.6519C30.8703 43.1579 31.0715 42.6923 31.3872 42.2603C31.728 41.7941 32.1351 41.438 32.6187 41.2329C33.1079 41.0254 33.599 41.0051 34.0474 41.0864C34.8819 41.2378 35.6375 41.7612 36.1724 42.1548C45.8362 49.267 51.8341 58.7864 55.0444 70.0718C55.5164 71.7311 55.9296 73.4075 56.3442 75.0542C56.4833 75.6062 56.6339 75.8875 56.7769 76.0249C56.8619 76.1066 57.0338 76.2311 57.5454 76.1655C57.8077 76.1319 57.9158 76.0703 57.9497 76.0464C57.9715 76.0309 57.9867 76.0164 58.0044 75.9692C58.0286 75.9047 58.0513 75.7917 58.0562 75.5981C58.0611 75.4023 58.0479 75.1892 58.0308 74.9175C57.8359 71.8233 57.5398 68.6141 57.3862 65.4692C56.535 48.0359 60.0738 31.5497 68.7466 16.2212C69.0828 15.6271 69.5752 14.8544 70.2974 14.3901C70.6817 14.1431 71.1422 13.9752 71.6704 13.9741Z" fill="#BEA001" stroke="#BEA001" stroke-width="2"></path>
<path d="M42.2808 101.137C42.9613 101.136 43.8121 101.193 44.5278 101.572C44.9059 101.772 45.2526 102.065 45.5073 102.477C45.7598 102.886 45.8901 103.361 45.9194 103.881C45.9499 104.421 45.8688 104.926 45.644 105.371C45.4163 105.821 45.0753 106.144 44.6958 106.364C43.9843 106.777 43.1132 106.846 42.4536 106.855C39.7636 106.893 37.0745 106.87 34.3979 106.845C33.7635 106.84 32.9761 106.772 32.3003 106.408C31.543 106 31.0387 105.284 30.9263 104.268C30.8257 103.36 31.0893 102.562 31.7476 101.996C32.3359 101.49 33.1272 101.271 33.8833 101.166L33.9497 101.157L34.0161 101.156C36.9243 101.141 39.6054 101.142 42.2808 101.137Z" fill="#BEA001" stroke="#BEA001" stroke-width="2"></path>
<path d="M57.4658 101.221C60.5172 101.076 63.5772 101.137 66.5869 101.182C67.2758 101.192 67.9792 101.381 68.5371 101.844C69.1144 102.323 69.4389 103.015 69.4805 103.822L69.4814 104.085C69.4312 105.398 68.5045 106.647 67.0059 106.672C66.1258 106.687 65.2374 106.752 64.3125 106.82C63.3972 106.888 62.4461 106.957 61.4883 106.972C59.5635 107 57.5473 106.808 55.5088 105.902L55.1621 105.748L55.0049 105.402C54.5101 104.315 54.4017 103.213 55.0234 102.344C55.6085 101.526 56.6049 101.261 57.4658 101.221Z" fill="#BEA001" stroke="#BEA001" stroke-width="2"></path>
<path d="M23.7852 89.3894C26.7986 89.3513 29.8127 89.3522 32.8252 89.3884C33.489 89.3964 34.1929 89.5575 34.7627 89.9929C35.3628 90.4515 35.7111 91.1374 35.7559 91.9626C35.8048 92.8658 35.4967 93.6403 34.8896 94.1794C34.313 94.6915 33.5638 94.907 32.8506 94.9382C30.3422 95.0479 27.8074 95.0109 25.1162 95.033L25.0684 95.0339L25.0205 95.0291C24.3558 94.9707 23.7037 94.9459 23.1094 94.7986C22.5159 94.6515 21.923 94.3683 21.4854 93.8767C21.0281 93.3629 20.8126 92.7003 20.8652 91.9617L20.8994 91.6658C21.0104 90.9896 21.3331 90.4179 21.8477 90.0125C22.4117 89.568 23.1114 89.3979 23.7852 89.3894Z" fill="#BEA001" stroke="#BEA001" stroke-width="2"></path>
<path d="M91.9004 89.416C94.8662 89.2489 97.8629 89.3527 100.76 89.3789C101.462 89.3853 102.165 89.5707 102.725 90.0254C103.301 90.4932 103.626 91.1665 103.696 91.9434C103.771 92.7696 103.526 93.5197 102.986 94.0664C102.464 94.5958 101.754 94.8455 101.043 94.8828C97.6933 95.0586 94.0598 95.4483 90.3018 94.46L89.9297 94.3613L89.7188 94.04C89.0188 92.9709 88.6517 91.7877 89.2139 90.7715C89.756 89.7919 90.8947 89.4727 91.9004 89.416Z" fill="#BEA001" stroke="#BEA001" stroke-width="2"></path>
<path d="M70.6074 89.3513C73.1952 89.3348 75.7857 89.3494 78.3633 89.3542C78.8909 89.3552 79.555 89.3946 80.1582 89.6609C80.8226 89.9542 81.3527 90.4947 81.5996 91.3318C81.8469 92.1705 81.7804 93.0049 81.249 93.6951C80.7657 94.3227 80.0128 94.673 79.252 94.8894L79.1299 94.9236L79.0039 94.9265C76.0389 95.0004 73.2684 95.067 70.4961 95.0408C69.8624 95.0347 69.0088 94.9833 68.2871 94.6179C67.9051 94.4245 67.5433 94.1349 67.2783 93.7136C67.014 93.2933 66.8844 92.8021 66.8701 92.2625C66.8547 91.6806 66.9581 91.1439 67.2236 90.6843C67.4937 90.2169 67.8838 89.911 68.2969 89.7175C69.0532 89.3634 69.9783 89.3553 70.6074 89.3513Z" fill="#BEA001" stroke="#BEA001" stroke-width="2"></path>
<path d="M88.6919 101.127C89.4534 101.139 90.5027 101.135 91.3247 101.457C91.7745 101.634 92.2212 101.929 92.5327 102.419C92.8419 102.906 92.9513 103.482 92.9214 104.102C92.8917 104.716 92.7214 105.262 92.3823 105.708C92.0451 106.152 91.6028 106.417 91.1675 106.574C90.3606 106.867 89.3849 106.849 88.7495 106.854C86.5038 106.871 84.2384 106.893 81.9731 106.848C81.2943 106.834 80.3773 106.777 79.6245 106.378C79.2226 106.165 78.8499 105.847 78.5923 105.385C78.3369 104.927 78.2343 104.398 78.2544 103.824L78.2661 103.623C78.3085 103.161 78.4431 102.737 78.686 102.371C78.9646 101.952 79.341 101.676 79.73 101.499C80.4562 101.168 81.3191 101.143 81.937 101.139C84.1041 101.124 86.2742 101.129 88.6763 101.127H88.6919Z" fill="#BEA001" stroke="#BEA001" stroke-width="2"></path>
<path d="M46.8081 89.3877C49.517 89.2745 52.2482 89.3494 54.9009 89.3643C55.5496 89.3679 56.305 89.4703 56.936 89.8701C57.6322 90.3114 58.0507 91.0336 58.0991 91.9717C58.1505 92.9696 57.7898 93.7904 57.1001 94.3301C56.4604 94.8305 55.6496 95.0026 54.9185 95.0146C51.9511 95.0636 48.8076 95.2439 45.478 94.7285L45.0806 94.667L44.8364 94.3467C44.3974 93.7714 44.0551 93.2123 43.8569 92.6768C43.6598 92.1441 43.5707 91.5383 43.7876 90.9531C44.0127 90.3459 44.4922 89.9606 45.019 89.7344C45.5302 89.515 46.145 89.4154 46.8081 89.3877Z" fill="#BEA001" stroke="#BEA001" stroke-width="2"></path>
</svg>