<svg width="38" height="38" viewBox="0 0 38 38" fill="none" xmlns="http://www.w3.org/2000/svg">
<rect width="38" height="38" rx="6" fill="#F5EFD2"></rect>
<path d="M15.291 22.8268C16.7093 22.8233 16.7751 22.7341 16.3908 21.4531C15.6979 19.1433 14.4858 17.1754 12.5095 15.7079C12.2772 15.5354 12.0663 15.3217 12.2759 15.0349C12.5101 14.7143 12.7923 14.879 13.0375 15.0595C15.1667 16.6264 16.4901 18.7235 17.2007 21.2212C17.3057 21.5904 17.3976 21.9633 17.4913 22.3356C17.5589 22.6039 17.6769 22.7964 18.0085 22.7539C18.3477 22.7104 18.3281 22.4682 18.3135 22.2359C18.2689 21.528 18.2033 20.8213 18.1688 20.1131C17.9792 16.2299 18.767 12.5633 20.6958 9.15418C20.8446 8.8912 21.0488 8.63428 21.3898 8.83378C21.7241 9.02933 21.6027 9.30736 21.4439 9.58245C19.6842 12.6306 18.9652 15.9373 18.9927 19.4141C19.0005 20.3893 19.1338 21.3635 19.206 22.3383C19.2217 22.55 19.2858 22.7157 19.5291 22.7462C19.768 22.7761 19.9581 22.7108 20.0335 22.4636C20.0949 22.262 20.1476 22.0575 20.1964 21.8525C20.8316 19.1868 22.1276 16.924 24.3668 15.244C24.6749 15.0129 25.075 14.5986 25.4125 15.0513C25.7551 15.5109 25.1792 15.6857 24.8993 15.8986C22.7797 17.5109 21.5895 19.6829 20.9792 22.2011C20.8574 22.7035 21.0155 22.8509 21.6445 22.8219C23.768 22.7243 25.8903 22.8835 28.0132 22.8331C28.1882 22.8289 28.365 22.8314 28.5385 22.8511C28.7599 22.8763 28.8885 23.006 28.8989 23.2321C28.9093 23.4568 28.7986 23.6038 28.5786 23.6462C28.4274 23.6754 28.2691 23.677 28.114 23.677C22.0533 23.6777 15.9925 23.6772 9.93172 23.6742C9.75793 23.6741 9.57921 23.6644 9.41162 23.6238C9.20016 23.5725 9.07917 23.4197 9.10246 23.1976C9.12297 23.002 9.26003 22.8881 9.44862 22.8604C9.62097 22.8351 9.79807 22.8351 9.9731 22.8347C11.727 22.8307 13.481 22.829 15.291 22.8268Z" fill="#BEA001"></path>
<path d="M12.6871 28.3783C13.341 28.3749 13.9434 28.375 14.5459 28.374C14.8407 28.3735 15.12 28.4308 15.1396 28.7788C15.1603 29.1445 14.8684 29.2065 14.5813 29.2105C13.979 29.2189 13.3764 29.214 12.774 29.2084C12.505 29.2059 12.2495 29.1466 12.2143 28.8287C12.1827 28.5435 12.3758 28.4217 12.6871 28.3783Z" fill="#BEA001"></path>
<path d="M17.613 29.0162C17.4207 28.5933 17.6385 28.4091 17.9727 28.3933C18.6508 28.3612 19.3315 28.3744 20.0109 28.3846C20.2468 28.3881 20.4276 28.5137 20.4405 28.7654C20.4518 28.9841 20.309 29.1666 20.1047 29.17C19.2825 29.1838 18.448 29.3873 17.613 29.0162Z" fill="#BEA001"></path>
<path d="M10.6806 26.5508C10.5136 26.5362 10.3963 26.5322 10.2851 26.5046C10.0765 26.4529 9.93468 26.3215 9.95041 26.1008C9.96829 25.85 10.1496 25.7339 10.3857 25.7309C11.0619 25.7224 11.7382 25.7227 12.4144 25.7308C12.6498 25.7336 12.8381 25.8454 12.8517 26.0971C12.8671 26.3807 12.6637 26.5186 12.4128 26.5296C11.8536 26.5541 11.293 26.5458 10.6806 26.5508Z" fill="#BEA001"></path>
<path d="M25.4078 26.4289C25.1183 25.9868 25.3122 25.7596 25.7229 25.7364C26.3805 25.6993 27.0419 25.7224 27.7016 25.7284C27.9446 25.7306 28.1183 25.8558 28.1404 26.1005C28.1633 26.3557 27.9898 26.5048 27.7557 26.5171C26.9849 26.5576 26.2109 26.6401 25.4078 26.4289Z" fill="#BEA001"></path>
<path d="M22.8026 26.527C22.135 26.5437 21.5155 26.5586 20.8962 26.5527C20.6174 26.55 20.3124 26.5013 20.303 26.1465C20.2923 25.7424 20.6189 25.7244 20.9205 25.7224C21.5015 25.7187 22.0826 25.7219 22.6637 25.723C22.8881 25.7235 23.104 25.7613 23.1764 26.0068C23.2576 26.2822 23.1097 26.4397 22.8026 26.527Z" fill="#BEA001"></path>
<path d="M24.984 28.3721C25.3589 28.3778 25.735 28.3784 25.7144 28.8055C25.6945 29.2162 25.3148 29.2082 24.9985 29.2107C24.4924 29.2146 23.986 29.2193 23.4801 29.2092C23.1754 29.2032 22.85 29.1522 22.8637 28.7618C22.8762 28.4058 23.1841 28.3768 23.4691 28.3748C23.9558 28.3714 24.4425 28.3726 24.984 28.3721Z" fill="#BEA001"></path>
<path d="M15.2982 26.485C14.9315 26.0044 15.03 25.7532 15.5725 25.7305C16.1749 25.7053 16.7792 25.7219 17.3827 25.7253C17.6395 25.7267 17.8639 25.8101 17.8788 26.0987C17.8952 26.4172 17.6576 26.5421 17.3843 26.5466C16.7047 26.5578 16.0232 26.5972 15.2982 26.485Z" fill="#BEA001"></path>
</svg>