<svg width="50" height="50" viewBox="0 0 50 50" fill="none" xmlns="http://www.w3.org/2000/svg">
<path d="M19.6866 3.14462C21.2895 2.08655 22.8086 1.02414 24.3836 0.0517136C24.6176 -0.0928786 25.1687 0.0926708 25.4777 0.281323C27.4983 1.51749 29.4313 2.90943 31.5115 4.03203C33.7939 5.26448 36.2619 6.09232 38.8391 6.52299C40.3856 6.78115 41.9345 7.02875 43.4847 7.26333C44.2883 7.38496 44.4342 7.91802 44.4329 8.60685C44.4261 12.9483 44.4671 17.2898 44.4174 21.6307C44.3852 24.4772 44.3982 27.3418 44.0774 30.1629C43.7615 32.9399 42.6203 35.4985 40.9869 37.7959C38.5661 41.2003 35.3782 43.7763 31.8931 45.9917C29.7429 47.3588 27.5088 48.595 25.2903 49.8516C25.0197 50.0049 24.54 50.0577 24.2794 49.9224C18.8488 47.1075 13.6758 43.8973 9.61538 39.2393C6.60377 35.7846 5.07655 31.6504 5.03187 27.0551C4.97168 20.8848 5.01512 14.7126 5.01574 8.5417C5.01574 7.46067 5.2199 7.36262 6.30838 7.24099C7.95661 7.05668 9.64765 6.91953 11.2152 6.42618C13.8191 5.60641 16.3405 4.52228 18.8941 3.54178C19.1467 3.44373 19.3794 3.2948 19.6866 3.14462ZM15.8688 6.63904C12.8901 7.83177 9.78542 8.50632 6.56095 8.85756C6.5504 9.07042 6.53365 9.24976 6.53365 9.42911C6.53302 15.1656 6.51068 20.9034 6.55164 26.6399C6.56033 27.8699 6.67948 29.1253 6.95253 30.3224C7.709 33.6393 9.27965 36.5373 11.6366 39.0227C15.2774 42.8622 19.7281 45.5697 24.2645 48.1606C24.5164 48.3045 25.0067 48.2561 25.2797 48.1047C28.9473 46.0736 32.4945 43.8631 35.7022 41.1364C40.5016 37.0561 43.0348 31.9911 42.8244 25.5955C42.7047 21.9404 42.8102 18.2778 42.8139 14.6183C42.8151 12.7287 42.8139 10.8397 42.8139 8.90162C42.5284 8.84763 42.2895 8.80854 42.0531 8.75641C39.6322 8.22396 37.1661 7.8417 34.803 7.11998C31.3234 6.05756 28.1399 4.34045 25.2493 2.10145C25.0408 1.9401 24.5313 1.94506 24.2893 2.08779C23.4305 2.59542 22.6727 3.28487 21.7922 3.74409C19.8876 4.73762 17.9316 5.63123 15.8688 6.63904Z" fill="#066653"></path>
<path d="M15.9331 6.60244C17.9319 5.63125 19.8886 4.73763 21.7925 3.7441C22.6725 3.28488 23.4302 2.59543 24.2897 2.08781C24.5317 1.94446 25.0405 1.94011 25.2497 2.10146C28.1409 4.34047 31.3238 6.05758 34.8033 7.11999C37.1664 7.84171 39.6326 8.22398 42.0534 8.75643C42.2898 8.80855 42.5294 8.84765 42.8142 8.90164C42.8142 10.8397 42.8155 12.7287 42.8142 14.6183C42.8111 18.2778 42.705 21.9404 42.8248 25.5955C43.0351 31.9911 40.5014 37.0562 35.7025 41.1364C32.4948 43.8632 28.9476 46.0736 25.2801 48.1047C25.007 48.2555 24.5168 48.3046 24.2648 48.1606C19.7285 45.5697 15.2772 42.8622 11.6369 39.0227C9.27999 36.5374 7.70933 33.6399 6.95286 30.3224C6.67981 29.1253 6.56066 27.8699 6.55197 26.6399C6.51102 20.9034 6.53336 15.1663 6.53398 9.42912C6.53398 9.24978 6.55073 9.07043 6.56128 8.85758C9.78575 8.50634 12.8905 7.83178 15.9331 6.60244ZM25.3248 10.8601C21.898 10.5219 18.5966 12.7144 17.6378 15.7322C17.3616 16.601 17.155 17.4239 16.1441 18.0041C11.5451 20.6446 10.6713 27.3157 14.7224 31.2967C16.45 32.9939 18.5786 33.864 21.0385 33.6027C21.409 33.5636 22.0116 33.051 22.0128 32.755C22.0159 32.1822 21.4295 32.163 20.892 32.1189C19.9513 32.0407 18.9652 31.9532 18.1001 31.6107C15.7463 30.6792 14.3662 28.9143 13.8443 26.3985C13.2479 23.5228 14.821 19.8472 17.8227 18.7718C18.4762 18.5372 18.9559 18.1431 18.81 17.3296C18.7784 17.1515 18.7877 16.9492 18.838 16.776C19.9469 12.931 24.0911 11.3622 27.4241 13.0762C29.2219 14.0008 30.1689 15.5622 30.5139 17.5058C30.6188 18.0966 30.8757 18.4857 31.4373 18.7066C33.8036 19.6356 35.0801 21.3881 35.6293 23.8654C36.5428 27.9816 33.412 32.2734 28.5834 32.14C28.1825 32.1289 27.771 32.4981 27.3639 32.6905C27.6935 33.0014 27.9957 33.3532 28.3643 33.6064C28.5412 33.7281 28.8577 33.7219 29.091 33.6747C30.1999 33.4507 31.3734 33.357 32.3949 32.9176C36.5918 31.1117 38.2679 26.4178 36.835 22.3754C35.9675 19.9285 34.3776 18.109 31.8767 17.2551C31.5559 14.21 29.2176 11.3349 25.3248 10.8601ZM26.3332 29.2221C26.1321 29.5045 25.9317 29.7862 25.7306 30.0686C25.6555 29.9953 25.5811 29.9221 25.506 29.8495C25.506 28.4247 25.4991 26.9999 25.5091 25.575C25.5134 24.9917 25.5134 24.3873 24.7259 24.3953C23.9701 24.4034 24.0116 25.0023 24.0135 25.5428C24.0191 26.98 24.0154 28.4172 24.0154 30.0282C23.1062 29.0757 22.3566 28.2596 21.5716 27.4796C21.2048 27.1153 20.8151 26.6989 20.2473 27.2841C19.6714 27.878 20.1486 28.1684 20.5135 28.5414C21.5039 29.5541 22.5254 30.5427 23.4351 31.6237C23.7709 32.0227 23.9719 32.6514 23.9868 33.1826C24.0489 35.3198 24.0303 37.4602 24.0042 39.5986C23.9974 40.1758 24.1122 40.5984 24.7588 40.5773C25.3868 40.5568 25.5277 40.1354 25.5159 39.5558C25.4849 38.0373 25.6543 36.4995 25.4706 35.0033C25.2044 32.84 26.0347 31.2818 27.6258 29.9631C28.1781 29.5051 28.7193 28.9975 29.1251 28.4154C29.3045 28.1578 29.2697 27.5751 29.0922 27.2872C28.8198 26.8447 28.417 27.0576 28.1043 27.3958C27.5594 27.9866 26.9984 28.5637 26.3332 29.2221Z" fill="#F9F8F8"></path>
<path d="M25.4037 10.8825C29.2171 11.3343 31.5554 14.2094 31.8768 17.2545C34.3777 18.1084 35.9682 19.9279 36.8352 22.3748C38.2681 26.4172 36.5919 31.1111 32.395 32.917C31.3736 33.3564 30.2007 33.4501 29.0911 33.6741C28.8578 33.7212 28.5419 33.7275 28.3644 33.6058C27.9952 33.3526 27.693 33.0008 27.3641 32.6899C27.7705 32.4975 28.182 32.1283 28.5835 32.1394C33.4121 32.2735 36.5429 27.981 35.6294 23.8648C35.0796 21.3875 33.8037 19.6356 31.4375 18.706C30.8759 18.4851 30.619 18.096 30.5141 17.5052C30.1697 15.5616 29.2227 14.0002 27.4243 13.0756C24.0912 11.3616 19.9471 12.9304 18.8381 16.7754C18.7878 16.9492 18.7785 17.1509 18.8102 17.329C18.9554 18.1419 18.4763 18.5366 17.8229 18.7712C14.8212 19.8466 13.2474 23.5222 13.8444 26.3979C14.3663 28.9131 15.7464 30.6786 18.1002 31.6101C18.9653 31.952 19.9508 32.0401 20.8922 32.1183C21.4296 32.163 22.016 32.1816 22.0129 32.7544C22.0117 33.0504 21.4091 33.563 21.0386 33.6021C18.5787 33.8634 16.4495 32.9933 14.7225 31.2961C10.6714 27.3151 11.5452 20.644 16.1442 18.0035C17.1551 17.4233 17.3618 16.6004 17.6379 15.7316C18.5961 12.7144 21.8975 10.522 25.4037 10.8825Z" fill="#066653"></path>
<path d="M26.389 29.1843C26.999 28.5637 27.5594 27.9866 28.1055 27.3958C28.4183 27.0576 28.821 26.8453 29.0934 27.2872C29.2709 27.5751 29.3057 28.1578 29.1263 28.4154C28.7205 28.9975 28.1794 29.5051 27.627 29.9631C26.0359 31.2818 25.2056 32.84 25.4718 35.0033C25.6561 36.4995 25.4867 38.0373 25.5171 39.5558C25.5289 40.1354 25.388 40.5574 24.76 40.5773C24.1134 40.5984 23.998 40.1758 24.0054 39.5986C24.0321 37.4602 24.0501 35.3198 23.988 33.1826C23.9725 32.6514 23.7715 32.0227 23.4364 31.6237C22.5266 30.5421 21.5051 29.5535 20.5147 28.5414C20.1498 28.1684 19.6726 27.878 20.2485 27.2841C20.8163 26.6989 21.206 27.1153 21.5728 27.4796C22.3578 28.2596 23.1081 29.0757 24.0166 30.0282C24.0166 28.4166 24.0203 26.98 24.0147 25.5428C24.0122 25.0023 23.9713 24.4028 24.7271 24.3953C25.5146 24.3873 25.5146 24.9917 25.5103 25.575C25.5004 26.9999 25.5072 28.4247 25.5072 29.8495C25.5823 29.9227 25.6567 29.9953 25.7318 30.0686C25.9323 29.7862 26.1327 29.5039 26.389 29.1843Z" fill="#066653"></path>
</svg>