<svg width="50" height="50" viewBox="0 0 50 50" fill="none" xmlns="http://www.w3.org/2000/svg">
<path d="M14.0162 42.9397C11.2526 40.7316 8.7411 38.39 7.08343 35.268C5.81378 32.8801 5.06434 30.3327 5.03962 27.639C4.98155 21.2178 5.03962 14.7965 5.00008 8.37411C4.9939 7.40904 5.34236 7.10692 6.24997 6.98953C8.4711 6.70224 10.7207 6.47363 12.8812 5.92005C16.5487 4.98032 19.9827 3.44437 23.1608 1.33816C25.7712 -0.391172 24.9044 -0.514743 27.7304 1.38141C30.6009 3.30721 33.6752 4.86292 37.0709 5.62348C39.6102 6.19251 42.1816 6.62934 44.7531 7.03773C45.6348 7.17736 45.7552 7.65124 45.754 8.36237C45.7453 13.0246 45.783 17.6856 45.7324 22.349C45.7052 24.9019 45.7089 27.4752 45.3839 30.0003C45.0064 32.9332 43.7083 35.5454 41.8962 37.9204C39.2821 41.3494 35.8414 43.7856 32.3129 46.1185C30.3117 47.4395 28.2389 48.6585 26.1524 49.8459C25.786 50.0535 25.0774 50.0535 24.7258 49.833C21.1485 47.5877 17.612 45.2776 14.0162 42.9397ZM44.0624 23.5594C44.0624 18.5981 44.0624 13.6369 44.0624 8.76582C41.2753 8.18011 38.5142 7.74453 35.8389 7.00189C32.3351 6.02941 29.0933 4.41808 26.1605 2.2402C25.631 1.84725 25.2411 1.86951 24.6776 2.22291C23.0873 3.22134 21.4859 4.22099 19.8078 5.05693C17.1264 6.3927 14.3029 7.36333 11.3329 7.86131C9.73891 8.12822 8.14612 8.40377 6.54283 8.67748C6.53232 8.83811 6.51749 8.95859 6.51749 9.08031C6.51749 14.9127 6.49587 20.7451 6.5385 26.5787C6.54715 27.7681 6.70408 28.9741 6.9506 30.1393C7.6432 33.4127 9.22239 36.2343 11.5937 38.5889C15.5126 42.4776 20.1557 45.3697 24.9149 48.0851C25.204 48.2501 25.783 48.1685 26.0999 47.9832C27.9639 46.8976 29.8212 45.7935 31.6234 44.6079C34.7138 42.5758 37.6825 40.393 40.0927 37.533C42.1026 35.1488 43.4637 32.4439 43.89 29.372C44.1482 27.5203 44.0185 25.6155 44.0624 23.5594Z" fill="#BEA001"></path>
<path d="M44.0614 23.6484C44.0176 25.6156 44.1473 27.5204 43.8897 29.3727C43.4628 32.4446 42.1023 35.1488 40.0924 37.5337C37.6822 40.3943 34.7135 42.5765 31.6231 44.6086C29.8209 45.7942 27.9636 46.8983 26.0996 47.9838C25.7827 48.1692 25.2038 48.2507 24.9146 48.0858C20.156 45.3697 15.5123 42.4776 11.5934 38.5896C9.22149 36.235 7.64229 33.4133 6.95031 30.14C6.70379 28.9748 6.54624 27.7687 6.53821 26.5794C6.49558 20.7458 6.5172 14.9134 6.5172 9.08097C6.5172 8.95987 6.53203 8.83878 6.54253 8.67814C8.14583 8.40443 9.73862 8.12948 11.3326 7.86196C14.3026 7.36398 17.1261 6.39274 19.8075 5.05759C21.4856 4.22166 23.087 3.22138 24.6774 2.22357C25.2408 1.87017 25.6307 1.84791 26.1602 2.24086C29.093 4.41812 32.3349 6.03007 35.8386 7.00255C38.5139 7.74519 41.275 8.18077 44.0621 8.76648C44.0608 13.6369 44.0608 18.5982 44.0614 23.6484ZM20.924 19.8413C20.6935 19.5577 20.4903 19.2463 20.2277 18.9967C19.2373 18.0557 18.2444 17.1141 17.204 16.2306C17.065 16.112 16.5348 16.2324 16.3866 16.4104C16.2389 16.5865 16.284 16.9905 16.3588 17.2642C16.4057 17.4366 16.6578 17.5571 16.8252 17.6924C19.7248 20.0247 21.4189 23.0744 22.214 26.6758C21.1612 26.7907 21.2335 26.711 20.4983 26.0407C19.4047 25.0441 18.2129 24.1507 17.0297 23.256C16.5855 22.9206 16.022 22.7908 15.7236 23.4562C15.4487 24.0697 15.9578 24.2563 16.3822 24.5473C17.2633 25.1497 18.0807 25.8442 18.9246 26.5016C18.8746 26.5887 18.8252 26.6758 18.7751 26.7629C16.9321 26.7629 15.0885 26.7796 13.2455 26.7536C12.5819 26.7444 11.9863 26.8889 11.9752 27.6149C11.9628 28.4243 12.6653 28.3891 13.256 28.3891C14.7073 28.3891 16.1586 28.3928 17.6099 28.3928C24.3104 28.3909 31.0108 28.3891 37.7113 28.3872C38.3242 28.3872 39.0285 28.3242 39.0149 27.5704C39.0026 26.8574 38.3495 26.7314 37.7002 26.7444C36.5584 26.7685 35.4154 26.7481 34.273 26.7481C33.4352 26.7462 32.5974 26.7481 31.7596 26.7481C31.722 26.6424 31.6849 26.5368 31.6472 26.4311C32.5023 25.7941 33.3129 25.0805 34.2285 24.5486C34.8254 24.202 34.8822 23.7596 34.611 23.3537C34.4775 23.1535 33.7726 23.0793 33.539 23.2462C32.4356 24.037 31.2382 24.7932 30.4004 25.8269C29.6954 26.6956 29.035 26.8476 28.0508 26.6566C29.1036 22.8124 30.8706 19.5058 34.2464 17.2303C34.4985 17.0597 34.5041 16.5247 34.6246 16.1577C34.2403 16.0984 33.8004 15.8945 33.4834 16.015C32.9879 16.2022 32.5517 16.5803 32.1316 16.9281C29.19 19.3587 27.5818 22.6024 26.5123 26.1766C26.4407 26.4157 26.2053 26.6047 26.0459 26.8179C25.774 25.812 25.6535 24.9539 25.6616 24.0963C25.6801 22.1903 25.6152 20.2651 25.8537 18.3813C26.2084 15.5856 27.1988 12.9598 28.4944 10.4489C28.6198 10.2054 28.3819 9.7748 28.3127 9.43128C27.9667 9.52087 27.6071 9.57708 27.2822 9.71548C27.1401 9.77602 27.0418 9.9929 26.9714 10.1597C26.3325 11.6697 25.5386 13.1389 25.1055 14.7076C24.1349 18.2219 23.7524 21.827 24.0292 25.4827C24.0521 25.7812 24.0323 26.0833 24.0323 26.1401C23.0636 24.189 22.0169 22.0791 20.924 19.8413ZM23.6462 34.9493C23.4188 35.2977 23.1914 35.6456 22.9635 35.9922C23.3515 36.2387 23.7197 36.644 24.1312 36.694C25.045 36.8053 25.9804 36.7311 26.9065 36.7441C27.5349 36.7552 28.018 36.568 28.0421 35.855C28.0668 35.1179 27.5756 34.9419 26.9504 34.9419C25.9013 34.9419 24.851 34.9326 23.6462 34.9493ZM29.0313 30.8604C28.5697 30.8567 28.0508 30.7195 27.6627 30.8864C27.2599 31.0606 26.7706 31.4906 26.7051 31.8755C26.6155 32.3982 27.0882 32.6942 27.6899 32.6775C28.705 32.6497 29.7208 32.6645 30.7365 32.6738C31.3068 32.6812 31.6793 32.494 31.7176 31.8588C31.7584 31.1811 31.3568 30.916 30.7791 30.8678C30.2583 30.8233 29.7319 30.8567 29.0313 30.8604ZM24.2535 32.4353C24.6829 31.6704 24.442 30.916 23.6703 30.8586C22.5989 30.7789 21.5097 30.7603 20.4445 30.8697C20.1047 30.903 19.6426 31.3905 19.5629 31.7421C19.5091 31.9793 20.0176 32.5996 20.2938 32.6126C21.5702 32.667 22.8535 32.5687 24.2535 32.4353ZM16.2426 36.6588C17.3189 36.6866 18.402 36.7941 19.4683 36.7033C19.8631 36.6699 20.4723 36.2214 20.5378 35.8773C20.6645 35.2125 20.0744 34.9548 19.4548 34.9456C18.5607 34.9307 17.6599 34.8751 16.7752 34.966C16.3921 35.0049 15.938 35.2922 15.7199 35.6066C15.613 35.7623 15.972 36.2387 16.2426 36.6588ZM34.278 34.927C33.3549 34.9252 32.4195 34.8362 31.5137 34.9604C31.106 35.016 30.4918 35.4571 30.4399 35.7957C30.3485 36.3925 30.852 36.7534 31.5162 36.7441C32.3781 36.7348 33.2505 36.8257 34.0969 36.7126C34.5313 36.6533 35.1324 36.3326 35.2789 35.9755C35.5136 35.4009 34.9965 35.066 34.278 34.927ZM13.9121 30.8493C13.2467 30.8289 12.7123 31.0699 12.7401 31.7977C12.7679 32.5162 13.2968 32.7127 13.9751 32.6793C14.7728 32.6386 15.576 32.6367 16.3736 32.683C17.0341 32.7201 17.5524 32.4513 17.5697 31.844C17.5876 31.1978 17.0792 30.8345 16.3853 30.8437C15.6167 30.853 14.8475 30.8493 13.9121 30.8493ZM35.7045 32.6725C36.2884 32.6707 36.8933 32.7615 37.4493 32.6373C37.7984 32.5576 38.3118 32.1628 38.3217 31.8928C38.3335 31.5703 37.9152 30.9704 37.6378 30.9426C36.5454 30.8332 35.4284 30.8351 34.3379 30.9537C34.0475 30.9852 33.6348 31.5654 33.6027 31.9225C33.5508 32.4971 34.0389 32.7115 34.6042 32.6762C34.9094 32.6559 35.2177 32.6725 35.7045 32.6725Z" fill="#F9F8F8"></path>
<path d="M20.949 19.9043C22.0185 22.0791 23.0657 24.1896 24.0339 26.1401C24.0339 26.0827 24.0536 25.7805 24.0308 25.4827C23.754 21.8276 24.137 18.2225 25.107 14.7076C25.5401 13.1389 26.3341 11.6703 26.9729 10.1597C27.0434 9.99351 27.1416 9.77602 27.2837 9.71547C27.6087 9.57708 27.9683 9.52086 28.3142 9.43127C28.3834 9.77479 28.6213 10.2054 28.4959 10.4489C27.2009 12.9598 26.2105 15.5856 25.8552 18.3813C25.6161 20.2657 25.681 22.1903 25.6631 24.0963C25.6551 24.9539 25.7755 25.812 26.0474 26.8179C26.2068 26.6047 26.4422 26.4157 26.5139 26.1766C27.584 22.603 29.1922 19.3587 32.1331 16.9281C32.5532 16.5797 32.9888 16.2022 33.4849 16.015C33.8019 15.8945 34.2418 16.0984 34.6261 16.1577C34.5056 16.5247 34.5001 17.0597 34.248 17.2303C30.8721 19.5051 29.1057 22.8124 28.0523 26.6566C29.0365 26.8475 29.697 26.6955 30.4019 25.8269C31.2397 24.7932 32.4371 24.037 33.5405 23.2462C33.7735 23.0793 34.4784 23.1535 34.6125 23.3537C34.8837 23.7596 34.8269 24.202 34.2301 24.5486C33.3144 25.0805 32.5038 25.7935 31.6487 26.4311C31.6864 26.5368 31.7241 26.6424 31.7612 26.7481C32.599 26.7481 33.4368 26.7462 34.2745 26.7481C35.4169 26.7481 36.5599 26.7685 37.7017 26.7444C38.351 26.7314 39.0041 26.8574 39.0165 27.5704C39.0301 28.3242 38.3257 28.3872 37.7128 28.3872C31.0123 28.3891 24.3119 28.3909 17.6114 28.3928C16.1601 28.3928 14.7088 28.3891 13.2575 28.3891C12.6669 28.3891 11.9644 28.4243 11.9767 27.6149C11.9878 26.8889 12.5834 26.7444 13.247 26.7536C15.09 26.7796 16.933 26.7629 18.7767 26.7629C18.8267 26.6758 18.8761 26.5887 18.9262 26.5016C18.0828 25.8442 17.2648 25.1491 16.3838 24.5473C15.9599 24.2563 15.4502 24.0691 15.7252 23.4562C16.0236 22.7914 16.5877 22.9206 17.0313 23.256C18.2144 24.1507 19.4062 25.0441 20.4998 26.0407C21.235 26.711 21.1621 26.7907 22.2156 26.6758C21.4204 23.0744 19.7263 20.0247 16.8268 17.6924C16.6593 17.5571 16.4072 17.4366 16.3603 17.2642C16.2855 16.9899 16.2404 16.5865 16.3881 16.4104C16.5364 16.2324 17.0665 16.112 17.2055 16.2306C18.2459 17.1141 19.2388 18.0557 20.2292 18.9967C20.4924 19.2463 20.6963 19.5577 20.949 19.9043Z" fill="#BEA001"></path>
<path d="M23.7242 34.9399C24.8517 34.9325 25.9021 34.9418 26.9518 34.9418C27.5764 34.9418 28.0682 35.1179 28.0435 35.855C28.0188 36.568 27.5356 36.7552 26.9079 36.744C25.9818 36.7311 25.0457 36.8052 24.1326 36.694C23.7211 36.644 23.3528 36.238 22.9648 35.9921C23.1916 35.6455 23.4196 35.2977 23.7242 34.9399Z" fill="#BEA001"></path>
<path d="M29.1226 30.8585C29.7349 30.8567 30.2607 30.8233 30.7803 30.8678C31.3579 30.916 31.7602 31.181 31.7188 31.8588C31.6805 32.4945 31.3079 32.6811 30.7376 32.6737C29.7219 32.6644 28.7062 32.6496 27.6911 32.6774C27.0899 32.6941 26.6167 32.3975 26.7062 31.8755C26.7717 31.4899 27.2617 31.0605 27.6639 30.8863C28.0531 30.7195 28.5721 30.8567 29.1226 30.8585Z" fill="#BEA001"></path>
<path d="M24.1945 32.4797C22.8538 32.5687 21.5705 32.6669 20.2934 32.6132C20.0179 32.6002 19.5088 31.9799 19.5625 31.7426C19.6429 31.3905 20.1044 30.9036 20.4442 30.8702C21.51 30.7609 22.5986 30.7794 23.6699 30.8591C24.4422 30.916 24.6832 31.6697 24.1945 32.4797Z" fill="#BEA001"></path>
<path d="M16.1837 36.6149C15.9742 36.2387 15.6153 35.7629 15.7228 35.6072C15.9409 35.2921 16.395 35.0048 16.778 34.9665C17.6628 34.8757 18.5636 34.9313 19.4576 34.9461C20.0773 34.9554 20.6673 35.2131 20.5407 35.8778C20.4746 36.2226 19.866 36.6705 19.4712 36.7039C18.4042 36.7941 17.3211 36.6866 16.1837 36.6149Z" fill="#BEA001"></path>
<path d="M34.3577 34.9288C34.9978 35.066 35.5149 35.4015 35.2795 35.9755C35.1331 36.3332 34.5319 36.6532 34.0976 36.7126C33.2511 36.8256 32.3787 36.7348 31.5168 36.7441C30.8521 36.7533 30.3485 36.3919 30.4406 35.7957C30.4925 35.4565 31.1072 35.016 31.5144 34.9604C32.4207 34.8362 33.3555 34.9251 34.3577 34.9288Z" fill="#BEA001"></path>
<path d="M13.9986 30.8492C14.8506 30.8492 15.6198 30.8529 16.3884 30.8437C17.0823 30.8344 17.5914 31.1977 17.5728 31.844C17.5555 32.4519 17.0365 32.7201 16.3767 32.683C15.5797 32.6366 14.7759 32.6385 13.9782 32.6793C13.2992 32.7126 12.7704 32.5162 12.7432 31.7976C12.716 31.0698 13.2498 30.8288 13.9986 30.8492Z" fill="#BEA001"></path>
<path d="M35.6144 32.6725C35.2171 32.6725 34.9088 32.6558 34.603 32.6762C34.0383 32.7114 33.5495 32.4964 33.6014 31.9225C33.6342 31.5647 34.0463 30.9852 34.3367 30.9537C35.4272 30.835 36.5448 30.8332 37.6366 30.9426C37.914 30.9704 38.3329 31.5709 38.3205 31.8928C38.3106 32.1634 37.7972 32.5576 37.4481 32.6373C36.8927 32.7615 36.2878 32.6706 35.6144 32.6725Z" fill="#BEA001"></path>
</svg>